<?xml version="1.0" standalone="no"?>
<!DOCTYPE svg PUBLIC "-//W3C//DTD SVG 20010904//EN"
 "http://www.w3.org/TR/2001/REC-SVG-20010904/DTD/svg10.dtd">
<svg version="1.0" xmlns="http://www.w3.org/2000/svg"
 width="500.000000pt" height="500.000000pt" viewBox="0 0 500.000000 500.000000"
 preserveAspectRatio="xMidYMid meet">

<g transform="translate(0.000000,500.000000) scale(0.100000,-0.100000)"
fill="#000000" stroke="none">
<path d="M2240 4410 c-213 -27 -382 -112 -526 -263 -100 -105 -128 -145 -181
-262 -53 -118 -70 -188 -87 -375 -8 -85 -22 -182 -31 -215 -28 -106 -88 -214
-165 -300 -80 -90 -144 -178 -167 -233 -9 -20 -20 -73 -25 -117 -5 -44 -11
-104 -15 -133 -7 -62 14 -127 57 -176 15 -17 37 -50 49 -74 25 -48 99 -102
140 -102 22 0 20 3 -15 19 -61 28 -124 121 -124 183 0 16 7 8 24 -27 28 -60
40 -71 159 -150 47 -32 106 -45 222 -52 75 -4 94 -9 122 -30 18 -14 33 -30 33
-35 0 -5 -29 -37 -64 -71 -52 -50 -75 -83 -119 -172 -30 -60 -78 -148 -106
-194 -80 -132 -121 -280 -161 -576 -44 -339 -45 -354 -28 -371 26 -26 92 -33
308 -33 182 0 212 -2 264 -20 33 -12 72 -21 88 -21 16 0 55 -11 88 -25 57 -24
65 -25 314 -25 141 -1 260 1 264 4 13 8 341 35 488 41 139 5 175 13 212 48 22
21 32 22 165 19 78 -1 158 -5 177 -7 68 -10 70 3 13 117 -53 106 -119 281
-174 461 -48 156 -48 152 1 202 24 25 40 50 37 57 -3 8 6 37 19 64 34 70 39
108 21 157 -9 23 -21 69 -27 102 -17 89 -17 89 -71 141 -56 55 -79 91 -79 128
0 13 18 60 41 103 68 130 63 253 -16 417 -19 40 -35 80 -35 89 0 8 -16 48 -35
88 -19 41 -35 78 -35 84 0 5 16 23 36 38 40 33 55 63 44 92 -4 11 -1 40 7 65
17 55 28 213 19 264 -4 20 -16 46 -26 56 -18 18 -18 19 6 34 32 21 65 89 74
151 l8 50 1 -68 c0 -38 -4 -77 -10 -89 -6 -11 -9 -22 -6 -24 3 -3 15 16 27 41
29 59 29 168 1 275 -11 41 -19 76 -17 77 7 7 47 -115 56 -171 10 -63 20 -85
20 -44 0 48 -20 132 -44 183 -48 100 -222 294 -296 329 -25 12 -74 41 -110 66
-36 24 -117 66 -180 93 -63 27 -119 52 -125 56 -5 4 -29 9 -53 10 -41 2 -47
-1 -87 -45 -72 -78 -140 -224 -185 -396 -13 -49 -27 -88 -32 -88 -4 0 -6 10
-3 23 2 12 12 53 20 90 21 95 88 262 129 322 18 28 50 67 70 88 20 20 33 37
27 37 -5 0 -32 -25 -61 -56 -82 -90 -152 -247 -186 -417 -14 -71 -20 -87 -33
-83 -9 3 -50 8 -91 11 -120 10 -120 10 -114 48 17 91 58 237 83 292 34 75 99
164 146 199 30 23 42 26 122 26 91 -1 193 -19 219 -40 9 -9 14 -9 14 -1 0 6
-15 18 -32 28 -27 14 -64 18 -213 19 -99 1 -209 -1 -245 -6z m33 -582 c65 -10
77 -14 77 -31 0 -12 -5 -17 -14 -14 -7 3 -50 9 -95 12 -44 4 -81 9 -81 10 0
14 14 35 24 35 6 0 46 -5 89 -12z m847 -68 c-16 -93 -93 -240 -126 -240 -8 0
-14 2 -14 4 0 1 20 34 45 72 47 71 78 144 90 208 13 67 17 29 5 -44z m38 -54
c-3 -71 -10 -103 -31 -149 -25 -54 -28 -57 -54 -51 -15 4 -31 9 -35 11 -4 2
11 31 33 65 38 60 69 140 69 182 0 12 3 32 7 46 12 41 16 -1 11 -104z m-903
71 l100 -13 -3 -49 c-2 -28 -4 -51 -6 -52 -1 -1 -222 23 -233 26 -6 2 -2 88 4
94 8 9 18 8 138 -6z m135 -61 c0 -41 -13 -68 -23 -49 -7 14 5 93 14 93 5 0 9
-20 9 -44z m840 -157 c-6 -38 -16 -71 -21 -75 -5 -3 -9 -10 -9 -16 0 -7 6 -6
15 2 8 7 15 19 15 26 0 8 4 14 9 14 8 0 4 -32 -20 -150 l-11 -55 -17 42 c-9
24 -24 50 -33 60 -15 15 -15 18 -2 28 13 9 13 14 -5 34 -12 13 -21 25 -21 27
0 2 11 19 24 39 26 37 49 102 62 170 l8 40 9 -59 c7 -41 6 -79 -3 -127z m-981
95 c26 -6 31 -11 31 -36 0 -23 -4 -29 -16 -24 -9 3 -31 6 -50 6 -31 0 -34 3
-34 30 0 32 9 36 69 24z m-89 -34 c0 -12 -7 -20 -16 -20 -25 0 -101 -40 -132
-69 -75 -70 -106 -157 -101 -278 7 -144 89 -260 207 -293 154 -42 314 37 376
188 26 64 26 180 0 245 -32 81 -135 187 -180 187 -15 0 -22 19 -16 43 6 24 29
21 89 -9 70 -34 126 -93 165 -172 31 -62 33 -74 33 -167 0 -87 -3 -107 -27
-157 -52 -111 -144 -184 -265 -209 -105 -22 -211 13 -290 97 -52 54 -76 100
-98 184 -40 156 42 356 174 425 57 30 81 32 81 5z m167 -66 c86 -41 153 -148
160 -254 6 -76 -8 -120 -36 -120 -28 0 -35 17 -32 72 3 60 -24 155 -52 186
-46 50 -108 77 -172 76 -126 -2 -210 -80 -222 -208 -5 -54 -9 -66 -22 -64 -13
3 -16 17 -15 73 0 58 5 79 29 124 74 135 220 182 362 115z m1067 -11 c-11 -45
-30 -77 -72 -119 -48 -48 -80 -110 -89 -169 -3 -25 -10 -48 -14 -51 -13 -8
-11 18 8 112 17 80 18 83 55 100 39 18 80 68 99 122 13 39 22 42 13 5z m-1077
-86 c62 -45 86 -96 86 -182 -1 -99 -39 -166 -118 -208 -83 -43 -200 -14 -256
64 -26 37 -49 110 -49 158 0 41 38 128 66 152 49 43 98 60 160 57 51 -3 68 -9
111 -41z m603 -12 c0 -6 -28 -18 -70 -29 -23 -7 -23 -6 5 13 28 18 65 27 65
16z m135 -4 l40 -7 -31 -6 c-20 -5 -40 -20 -59 -48 -16 -23 -46 -50 -67 -61
-21 -11 -38 -22 -38 -25 0 -2 9 0 19 6 24 13 41 13 41 1 0 -5 -10 -13 -22 -17
-13 -4 -49 -19 -81 -35 -57 -27 -61 -28 -142 -17 l-84 11 29 51 c22 40 39 57
82 78 29 15 67 28 83 28 17 0 53 11 80 24 53 26 85 29 150 17z m84 -63 c24
-25 37 -64 45 -134 6 -47 4 -53 -24 -82 -34 -36 -38 -66 -14 -94 16 -17 15
-22 -15 -83 -54 -109 -109 -125 -149 -44 -33 66 -40 171 -17 254 9 36 22 65
27 65 5 0 7 -8 5 -17 -13 -47 -18 -113 -8 -113 6 0 10 3 10 8 -3 18 2 30 14
35 19 7 10 -44 -10 -60 -9 -7 -11 -13 -3 -18 16 -10 40 57 40 110 0 28 6 52
15 61 25 25 18 36 -20 32 -42 -5 -43 0 -11 51 36 56 80 68 115 29z m195 -30
c13 -63 14 -90 5 -166 -5 -46 -15 -97 -22 -113 l-12 -31 -28 22 c-22 18 -27
29 -27 66 0 97 42 244 70 244 5 0 12 -10 14 -22z m-692 -48 c-9 -16 -19 -25
-21 -19 -3 9 26 49 35 49 2 0 -5 -13 -14 -30z m-1216 -59 c-7 -48 -74 -195
-117 -259 -18 -26 -60 -78 -93 -116 -34 -38 -78 -97 -98 -130 -38 -61 -48 -59
-26 5 18 53 54 105 157 223 91 107 135 180 162 272 16 54 24 57 15 5z m1504
-16 c0 -10 -10 -15 -30 -15 -36 0 -38 7 -7 20 32 13 37 12 37 -5z m-945 -39
c42 -123 179 -188 293 -141 49 21 110 81 117 117 6 26 8 27 26 14 11 -8 29
-11 41 -8 19 5 19 2 -6 -45 -51 -102 -155 -160 -270 -151 -132 11 -224 93
-251 224 -5 27 -3 31 16 29 15 -1 25 -12 34 -39z m775 -1 c154 -22 160 -24
160 -47 0 -10 -4 -16 -10 -13 -5 3 -10 2 -10 -4 0 -5 4 -12 9 -15 4 -3 11 -34
13 -69 8 -90 38 -154 83 -173 32 -13 39 -13 71 2 19 9 44 29 55 45 28 39 69
143 69 174 0 32 6 32 36 -4 14 -17 40 -40 59 -51 52 -32 43 -73 -26 -124 -41
-32 -49 -60 -27 -96 18 -29 -7 -72 -44 -76 -15 -1 -35 -7 -45 -13 -14 -8 -8
-10 25 -5 42 6 42 6 42 -24 0 -22 -9 -37 -35 -59 -28 -22 -37 -39 -45 -82 -19
-103 -79 -133 -212 -106 -44 9 -100 24 -126 34 -51 20 -59 35 -61 113 -1 61
-29 132 -91 238 -28 47 -60 115 -72 152 l-21 66 20 49 c12 26 24 63 28 81 5
24 11 32 23 28 10 -3 69 -12 132 -21z m402 -62 c-3 -16 -7 -22 -10 -15 -4 13
4 42 11 42 2 0 2 -12 -1 -27z m-599 -163 c9 -31 33 -82 53 -115 54 -89 90
-166 98 -205 6 -33 5 -32 -28 20 -121 193 -139 231 -151 320 -9 67 5 57 28
-20z m-1399 -212 c-10 -18 -30 -71 -44 -116 -23 -70 -28 -80 -34 -59 -7 30 3
60 50 145 36 64 58 88 28 30z m1513 -120 c41 -70 51 -136 17 -107 -8 6 -14 25
-14 41 0 16 -7 44 -14 63 -19 44 -14 45 11 3z m-1584 -193 c6 -87 -5 -86 -23
3 -12 56 -4 135 10 97 4 -11 10 -56 13 -100z m1602 -91 c-23 -60 -38 -66 -19
-7 26 80 26 80 31 65 3 -8 -2 -33 -12 -58z m-69 -70 c-15 -31 -29 -55 -32 -51
-3 3 7 30 22 61 36 73 44 65 10 -10z m50 -69 c-6 -24 -63 -72 -73 -62 -12 12
8 56 39 86 26 26 34 29 36 16 2 -9 1 -27 -2 -40z m42 26 c-7 -9 -14 -18 -15
-20 -2 -2 -3 8 -3 22 0 20 4 25 15 21 13 -5 13 -9 3 -23z m187 -91 c27 -20 55
-43 61 -51 6 -8 23 -72 39 -144 15 -71 31 -140 36 -152 10 -27 -3 -30 -22 -7
-7 9 -41 36 -75 60 l-62 45 10 37 c5 20 22 63 37 95 15 31 24 57 19 57 -17 0
-61 -108 -79 -193 -10 -49 -20 -91 -22 -94 -5 -4 -37 125 -37 149 0 7 -25 35
-55 63 -50 46 -55 54 -60 104 -5 46 -2 59 20 93 l26 39 57 -32 c31 -17 79 -48
107 -69z m-237 -50 c-3 -19 -4 -19 -37 2 l-33 21 33 18 c33 17 34 17 37 -2 2
-10 2 -28 0 -39z m-85 -25 c5 -28 4 -34 -3 -20 -8 19 -14 73 -6 64 2 -2 6 -22
9 -44z m164 -78 c44 -28 59 -60 68 -147 2 -22 6 -44 10 -50 12 -20 -1 -10 -36
26 l-34 37 30 -18 c27 -16 27 -14 -7 17 l-38 35 19 36 c10 21 15 37 10 37 -5
0 -17 -17 -27 -37 l-19 -36 -47 47 c-48 47 -76 98 -76 136 0 19 5 17 53 -18
28 -21 71 -51 94 -65z m-984 35 l19 -32 -34 14 c-18 8 -33 19 -32 25 3 29 5
32 16 29 7 -3 21 -19 31 -36z m64 -24 c34 -24 45 -45 17 -34 -9 3 -19 6 -24 6
-4 0 -15 11 -24 25 -20 31 -12 32 31 3z m880 -155 c-7 -6 -56 47 -57 60 0 5
14 -6 31 -23 17 -17 29 -33 26 -37z m77 -58 c41 -39 59 -75 39 -75 -10 0 -103
102 -103 113 0 17 21 4 64 -38z m102 -161 c8 -20 13 -39 10 -42 -3 -3 -7 -3
-8 -1 -26 43 -55 108 -51 113 8 8 30 -24 49 -70z"/>
<path d="M3080 3289 c0 -5 5 -7 10 -4 6 3 10 8 10 11 0 2 -4 4 -10 4 -5 0 -10
-5 -10 -11z"/>
<path d="M3205 2920 c-7 -12 2 -12 30 0 19 8 19 9 -2 9 -12 1 -25 -3 -28 -9z"/>
</g>
</svg>
