<!DOCTYPE svg PUBLIC "-//W3C//DTD SVG 1.1//EN" "http://www.w3.org/Graphics/SVG/1.1/DTD/svg11.dtd">
<svg xmlns="http://www.w3.org/2000/svg" viewBox="0 0 500 500">
<path fill="#fbfbfb" stroke="#fbfbfb" d="M232.5 57.98c-18.979 1.274-28.904 4.154-42.965 12.467-26.681 15.775-41.906 41.04-44.624 74.053-2.188 26.576-7.381 41.189-19.574 55.079-14.893 16.968-18.082 22.586-19.538 34.421-2.679 21.771-2.133 25.656 4.714 33.489 1.918 2.194 3.487 4.522 3.487 5.173 0 5.437 10.031 11.001 22.175 12.299 5.129.548 11.575 1.417 14.325 1.931s6.885.691 9.188.394c3.407-.44 4.749-.097 7.195 1.837 4.264 3.372 3.88 4.963-2.733 11.314-4.634 4.452-7.062 8.054-11.687 17.341-3.211 6.447-6.815 13.072-8.009 14.722-7.826 10.815-13.737 27.993-16.873 49.038-5.098 34.209-6.398 49.578-4.331 51.195 2.728 2.134 19.696 3.573 34.1 2.892 12.599-.595 15.037-.442 20.715 1.3 3.539 1.086 9.21 2.416 12.601 2.956 3.391.539 7.652 1.749 9.469 2.689 3.752 1.94 44.448 2.797 56.865 1.197 12.949-1.668 40.721-3.742 50.282-3.754 10.451-.014 14.929-1.224 18.779-5.074 2.2-2.2 2.538-2.227 21.077-1.667 10.386.314 19.084.177 19.382-.305.297-.481-1.474-4.607-3.937-9.171-7.148-13.244-23.347-59.812-22.135-63.631.307-.967 2.356-3.463 4.555-5.546 3.952-3.745 4.948-5.619 2.987-5.619-.555 0 .233-2.363 1.75-5.25 3.402-6.471 3.437-11.297.184-25.25-2.246-9.635-2.525-10.187-7.623-15.116-8.322-8.047-9.806-13.879-5.207-20.466 8.052-11.533 7.617-31.86-.983-45.968-1.157-1.897-2.105-4.363-2.107-5.478-.002-1.116-1.579-5.315-3.504-9.332-4.245-8.857-4.314-10.338-.624-13.318 3.765-3.04 5.319-6.198 4.552-9.252-.341-1.359.16-5.53 1.114-9.27 2.239-8.785 2.343-22.545.206-27.487l-1.594-3.688 2.673-.61c4.414-1.007 6.417-3.327 10.811-12.515 5.351-11.191 1.107-26.224-11.528-40.829-11.645-13.46-14.502-16.142-20.43-19.171-3.399-1.736-6.855-3.722-7.68-4.412-3.466-2.898-12.171-7.484-22-11.59-6.684-2.791-11.337-5.397-12.804-7.168-3.987-4.816-17.401-6.414-40.696-4.85M347.158 142c0 1.375.227 1.938.504 1.25.278-.687.278-1.812 0-2.5-.277-.687-.504-.125-.504 1.25m-111.665 7.795c.315 4.391.449 4.663 1.697 3.415 1.861-1.861 1.805-4.143-.127-5.176-1.498-.802-1.734-.536-1.57 1.761m94.627 16.41c-.498 1.346-.388 2.67.282 3.399.832.904 1.235.673 1.663-.955.31-1.182.195-2.3-.257-2.484-.451-.185-.566-.747-.255-1.25.311-.503.299-.915-.026-.915s-.959.992-1.407 2.205m-27.613-.216c-.35.566.051.734.941.393 1.732-.665 2.049-1.382.611-1.382-.518 0-1.216.445-1.552.989m30.688 5.511c.02 1.65.244 2.204.498 1.231.254-.973.237-2.323-.037-3-.274-.677-.481.119-.461 1.769m-27.102 3.443c-.766.473-1.018 1.37-.583 2.074.574.928 1.007.811 1.72-.464 1.157-2.067.684-2.736-1.137-1.61m-9.464 8.291c-1.017 6.819-.455 8.766 2.531 8.766 1.993 0 2.052-.129.569-1.25-1.143-.864-1.745-3.103-1.949-7.25l-.296-6-.855 5.734M289 185c0 .55.702 1 1.559 1s1.281-.45.941-1c-.34-.55-1.041-1-1.559-1s-.941.45-.941 1m13.5 6c-.34.55-.141 1 .441 1s1.059-.45 1.059-1-.198-1-.441-1-.719.45-1.059 1m6.833 60.456c0 .801.383 1.22.85.931.467-.289.591-.944.274-1.456-.808-1.308-1.124-1.161-1.124.525m-35.934 26.794c-.396.688-.368.933.061.546 1.02-.919 6.869 3.081 9.62 6.578 2.143 2.725 2.145 2.781.352 8.434-2.388 7.529-2.159 13.386.485 12.427 1.433-.52 1.432-.393-.016 1.345-1.366 1.64-1.43 2.65-.436 6.92l1.163 5 .768-4.213c.816-4.479.165-6.751-1.62-5.649-.632.391-.799.208-.398-.44.377-.611 1.272-.886 1.987-.611.716.274 1.35-.083 1.41-.794.208-2.498.841-4.742 1.529-5.431.383-.382.696-1.12.696-1.639 0-.52-.922.118-2.049 1.416l-2.05 2.361 1.513-3.129c.831-1.721 2.196-3.391 3.032-3.712.874-.335 1.269-1.237.93-2.121-.324-.846-.092-1.538.517-1.538s1.107-.927 1.107-2.059c0-1.132.45-1.781 1-1.441.55.34 1 .172 1-.373 0-1.594-5.875-5.322-7.148-4.536-.69.427-.892.283-.498-.354.379-.614-1.786-2.604-5.065-4.655-6.357-3.976-6.859-4.125-7.89-2.332m13.68 12.333c.048 1.165.285 1.402.604.605.289-.722.253-1.585-.079-1.917-.332-.332-.568.258-.525 1.312m-26.064 3.632c.009.707.501 1.96 1.095 2.785.919 1.278.998 1.249.535-.199-.378-1.183-.109-1.532.888-1.15 1.096.42 1.183 1.011.374 2.523-.875 1.634-.701 2.067 1.007 2.514 1.135.297 1.826.924 1.536 1.393-.29.469.345 1.399 1.411 2.065 1.067.666 1.733 1.747 1.482 2.403-.982 2.559 2.482 2.143 4.877-.586l2.511-2.863-3.376-1.602c-1.858-.881-3.892-1.284-4.521-.896-.714.442-.869.263-.412-.475.706-1.143-1.905-3.987-5.672-6.179-1.288-.749-1.746-.679-1.735.267M172 296.256c0 .783 1.195 1.967 2.654 2.632 2.603 1.186 2.626 1.166 1.165-1.034-1.8-2.71-3.819-3.555-3.819-1.598m111.496.751c-.197.318.503.643 1.554.722 1.051.079 2.111-.181 2.357-.578.245-.397-.454-.722-1.554-.722s-2.161.26-2.357.578m-102.889 3.412c.301.785 1.252 1.697 2.113 2.027 2.6.998 2.506-.068-.159-1.814-1.981-1.298-2.387-1.342-1.954-.213m102.936-.488c-.317.512-.049 1.256.595 1.654.698.432.904.292.51-.345-.363-.588-.095-1.297.596-1.576.899-.362.917-.529.065-.585-.655-.043-1.45.34-1.766.852M272 303c0 .55.477 1 1.059 1s.781-.45.441-1-.816-1-1.059-1-.441.45-.441 1m10.564.293c.376.986.935 1.541 1.243 1.233.308-.307.001-1.114-.683-1.793-.988-.98-1.102-.865-.56.56M274 319.465c0 .819 8.116 8.752 8.53 8.338.611-.611-4.559-6.748-6.607-7.844-1.058-.566-1.923-.789-1.923-.494" fill-rule="evenodd"/>
<path fill="#a4aca6" stroke="#a4aca6" d="M233.598 58.112c-27.626 1.761-43.518 8.721-61.827 27.079-17.754 17.802-24.675 33.481-26.812 60.749-2.037 25.991-7.446 40.482-20.588 55.148-16.23 18.114-17.465 21.021-20.046 47.196-.678 6.876 1.404 13.395 5.954 18.643 1.634 1.885 3.551 4.81 4.259 6.5 2.59 6.181 9.692 10.563 17.162 10.59 2.64.01 7.95.685 11.8 1.5 3.849.816 10.067 1.483 13.816 1.483 5.814 0 7.323.386 10.251 2.619 4.5 3.432 4.447 3.64-2.601 10.152-4.966 4.59-7.093 7.688-12.027 17.513-3.297 6.565-7.272 13.8-8.832 16.076-10.201 14.882-14.398 30.465-19.75 73.342-3.476 27.848-3.791 26.791 8.328 27.953 4.848.465 15.997.727 24.776.584 13.604-.223 16.852.027 22 1.697 3.321 1.078 8.265 2.272 10.985 2.655 2.72.382 6.795 1.513 9.054 2.512 4.102 1.815 55.599 3.19 58.244 1.555 1.503-.929 36.354-3.655 47.066-3.682 12.037-.029 16.621-1.056 20.254-4.537l2.841-2.722 19.076.5c10.491.275 19.26.202 19.485-.162.225-.365-2.154-5.814-5.287-12.109C354.751 408.03 340 366.405 340 361.182c0-.977 1.811-3.544 4.024-5.706 2.214-2.161 3.907-4.626 3.763-5.477-.145-.852 1.014-4.392 2.574-7.868 3.071-6.843 3.079-7.889.15-19.631-.96-3.85-2.173-8.734-2.695-10.852-.656-2.665-2.757-5.639-6.818-9.65-8.219-8.117-8.56-10.581-2.949-21.3 7.152-13.664 6.481-27.309-2.149-43.698-1.593-3.025-2.897-6.336-2.898-7.357-.001-1.021-1.303-4.621-2.892-8-4.642-9.866-4.658-10.141-.733-12.567 3.644-2.252 6.144-7.322 4.798-9.729-.453-.809.013-4.555 1.075-8.638 2.436-9.366 2.147-26.508-.496-29.429-1.606-1.774-1.596-1.971.187-3.498 1.04-.89 2.191-1.317 2.558-.95s.547.218.399-.332c-.148-.55.548-2.8 1.547-5 .999-2.2 2.191-5.575 2.649-7.5.595-2.5.68-1.656.297 2.951-.295 3.548-1.027 7.373-1.627 8.5-.98 1.839-.921 1.909.572.677.915-.755 1.664-1.958 1.664-2.674 0-.715 1.125-2.638 2.5-4.272 1.375-1.634 2.493-3.356 2.485-3.826-.009-.471-.469-.181-1.024.644-.708 1.054-.824.013-.388-3.504.542-4.376.074-8.585-2.057-18.496-.377-1.756-.048-1.459 1.105 1 .903 1.925 1.945 7.1 2.316 11.5.669 7.937.681 7.963 1.464 3.369 1.745-10.229-2.545-21.012-13.871-34.869-10.096-12.352-13.436-15.533-19.516-18.587-2.759-1.386-7.841-4.414-11.294-6.729-3.452-2.315-11.44-6.397-17.749-9.071-6.309-2.674-12.371-5.889-13.471-7.143-3.127-3.567-5.741-4.448-16.229-5.468-5.374-.523-9.996-.897-10.271-.831-.275.066-6.306.489-13.402.941m.616 7.419c-7.69 7.881-12.845 18.151-16.639 33.15-4.156 16.434-5.303 14.939 12.948 16.884l6.024.642 1.835-8.829c1.912-9.202 6.003-21.256 9.703-28.594 2.655-5.265 12.556-17.74 14.208-17.902 3.705-.364-6.06-1.663-13.25-1.764L240.586 59l-6.372 6.531m25.197.84c-5.964 6.157-8.213 9.644-6.196 9.603.707-.014 3.085-2.453 5.285-5.419 4.51-6.082 7.388-7.848 11.307-6.941 2.608.604 2.63.573.693-.963-3.351-2.659-5.661-1.884-11.089 3.72m-7.964 11.544c.311.503.101 1.144-.466 1.425-.567.28-.485.403.181.272 1.586-.31 2.346-2.612.862-2.612-.628 0-.888.412-.577.915m-2.94 5.074c-.35.566.051.734.941.393 1.732-.665 2.049-1.382.611-1.382-.518 0-1.216.445-1.552.989m-3.346 8.558c-1.521 3.337-1.465 3.95.231 2.543 1.571-1.304 2.817-5.09 1.675-5.09-.41 0-1.268 1.146-1.906 2.547m-4.038 13.387c-2.761 11.62-2.6 13.806.263 3.566 1.23-4.4 2.577-9.013 2.993-10.25.429-1.278.348-2.25-.188-2.25-.52 0-1.9 4.02-3.068 8.934M217 117.933c0 1.778.619 2.067 4.418 2.067 2.43 0 5.204.301 6.164.67 1.191.457 1.516.298 1.023-.5-.398-.644-.246-1.17.336-1.17.582 0 1.059.36 1.059.8 0 .44 1.125.8 2.5.8s2.5-.33 2.5-.733c0-.97-2.345-1.587-9-2.367-3.025-.355-6.287-.867-7.25-1.14-1.262-.357-1.75.082-1.75 1.573m97.6 5.528c-1.144 7.22-4.294 14.986-8.105 19.978-3.493 4.576-3.113 5.491 2.31 5.547 2.432.026 6.446-10.953 6.953-19.016.588-9.355-.096-13.204-1.158-6.509m-103.064-.695c-.295.769-.536 2.878-.536 4.687 0 3.669-.06 3.65 16.632 5.165l7.133.647.457-4.382c.574-5.505 1.849-4.816-11.587-6.266-9.805-1.058-11.644-1.035-12.099.149m98.593 3.339c-.7 2.417-3.541 8.132-6.313 12.7-2.771 4.568-4.756 8.588-4.411 8.934 2.284 2.283 13.746-20.786 12.373-24.904-.206-.619-.948.853-1.649 3.27m-72.379-.534c-.412.419-.736 2.375-.72 4.346.025 2.952.213 3.27 1.064 1.807 1.146-1.968.844-7.362-.344-6.153m82.966 8.679c-.927 3.951-2.99 9.28-4.584 11.844-2.766 4.45-2.816 4.732-1.099 6.202.989.847 2.133 1.239 2.542.872.409-.367.447.156.084 1.164-.362 1.007-.659 2.02-.659 2.25 0 .23-.753.418-1.674.418-1.434 0-1.37.324.446 2.257 1.166 1.242 2.766 3.793 3.555 5.669l1.435 3.412 1.103-5.146c.607-2.83 1.411-7.069 1.787-9.419l.683-4.273-2.591 3-2.59 3 2.002-5.948c1.77-5.26 2.913-20.817 1.624-22.106-.209-.208-1.137 2.854-2.064 6.804M218 136.268c0 1.98.632 2.608 3.125 3.107 5.702 1.14 6.875.821 6.875-1.875 0-2.179-.439-2.5-3.418-2.5-1.88 0-4.13-.273-5-.607-1.181-.453-1.582.023-1.582 1.875m-7.645 7.179c-4.904 2.133-11.263 8.437-14.04 13.918-3.058 6.034-3.935 18.135-1.315 18.135 1.102 0 1.655-1.593 2.084-6 1.897-19.502 22.764-28.189 37.196-15.485 5.506 4.846 7.72 10.599 7.72 20.056 0 5.362.338 6.845 1.678 7.359 3.243 1.244 4.825-1.968 4.783-9.717-.109-20.253-20.966-35.724-38.106-28.266m125.837 7.095c-1.492 3.071-3.694 5.453-6.939 7.508-3.308 2.094-4.935 3.875-5.351 5.854-.528 2.511.116 2.088 5.5-3.61 5.757-6.094 10.365-12.861 9.408-13.817-.238-.238-1.416 1.591-2.618 4.065M211.5 151.9c-14.189 6.584-17.511 24.334-6.776 36.216 14.979 16.58 37.795 3.205 34.843-20.425-1.628-13.033-16.265-21.267-28.067-15.791m75.5 4.677-2.5 1.506 2.5-.662c3.629-.962 6.006-2.362 4-2.355-.825.003-2.625.683-4 1.511m4.683.949c-2.65 1.361-6.108 2.474-7.684 2.474-6.297 0-14.284 4.68-17.309 10.141-1.545 2.79-2.67 5.201-2.5 5.357.831.76 16.81 2 16.81 1.304 0-.441.408-.802.907-.802 1.722 0 14.379-6.047 13.823-6.604-.307-.307-1.536-.035-2.73.604s-2.4.933-2.68.653c-.28-.279 1.175-1.372 3.234-2.428 2.058-1.056 4.932-3.673 6.387-5.814 1.454-2.142 3.659-4.4 4.899-5.018 2.2-1.097 2.178-1.139-.918-1.759-5.148-1.029-7.157-.719-12.239 1.892m14.06 3.558c-2.584 1.505-6.523 9.429-4.254 8.559.921-.354 2.038-.643 2.482-.643.444 0 .744-.739.668-1.642-.076-.904.487-1.862 1.252-2.131 1.034-.363 1.236.133.785 1.929-.527 2.099-.264 2.413 2 2.381 1.734-.025 2.698.551 2.878 1.718.149.965-.077 1.54-.501 1.278-2.567-1.587-5.854 2.056-6.266 6.941-.453 5.389-2.539 10.635-4.48 11.266-1.735.565-2.497-5.358-1.478-11.49.48-2.887.73-5.25.557-5.25-1.058 0-2.575 4.926-3.254 10.565-.828 6.88.626 9.509 4.446 8.043.782-.3 1.422-.147 1.422.34 0 1.432-2.35 1.859-4.402.8-1.793-.925-1.867-.648-1.302 4.827.966 9.368 5.699 14.286 10.418 10.827 4.308-3.159 10.02-14.412 7.914-15.59-2.616-1.464-2.104-7.466.872-10.224 2.026-1.878 2.492-3.243 2.456-7.203-.105-11.699-5.91-18.972-12.213-15.301m23.766 5.241c-4.738 11.339-5.576 23.782-1.834 27.249 3.271 3.032 3.791 2.398 5.395-6.58 2.457-13.748-.144-28.847-3.561-20.669m-67.05 4.742c-.363.586-.445 1.281-.183 1.543s.743-.218 1.069-1.067c.676-1.762.1-2.072-.886-.476M290 177.295l-2.5 1.052 2.336.407c2.539.443 3.573-.095 3.018-1.57-.215-.572-1.334-.528-2.854.111m-149.376 1.244c-.965 2.514-.681 3.163.498 1.136.584-1.004.851-2.036.593-2.293-.257-.258-.749.263-1.091 1.157m53.034.011c.279.728 1.145 1.079 1.925.78 1.878-.721 1.79-.999-.508-1.6-1.314-.344-1.764-.084-1.417.82m.842 2.45c-.34.55-.115 1 .5 1s.886.375.603.833c-.283.459.14.834.941.834.801 0 1.456-.825 1.456-1.834 0-1.94-2.455-2.524-3.5-.833m65.954 2.21c-.388 1.766-1.539 5.155-2.558 7.532-2.352 5.488.403 15.473 7.11 25.768 5.549 8.516 8.941 16.977 8.97 22.374.052 9.599 1.33 11.422 9.87 14.084 19.436 6.06 30.154 2.529 30.154-9.936 0-2.906 2.913-7.032 4.965-7.032 1.727 0 3.287-3.991 2.113-5.406-.583-.703-.804-1.535-.49-1.849.314-.313-1.043-.206-3.014.238-5.149 1.162-5.454-.652-.353-2.098 4.856-1.375 7.813-3.576 6.279-4.671-.592-.423-.763-3.161-.418-6.714.32-3.3.657-5.64.75-5.199.237 1.131 7.056-4.222 8.271-6.494 2.075-3.876-2.082-8.209-5.22-5.441-1.046.922-1.05.819-.02-.546 1.066-1.415.943-1.853-.78-2.775-1.125-.603-2.694-2.321-3.487-3.82-1.565-2.958-1.514-3.027-3.53 4.775-6.451 24.965-24.321 24.965-27.601 0-1.053-8.016-1.391-8.966-2.975-8.358-.82.315-1.49.047-1.49-.594s-.419-.907-.931-.591a1.092 1.092 0 0 1-1.501-.347c-.313-.507-1.582-.661-2.819-.343-2.081.536-2.137.44-.749-1.281 1.36-1.687 1.336-1.799-.25-1.205-.962.361-1.75.298-1.75-.139 0-.678-13.185-3.168-16.671-3.149-.643.004-1.487 1.452-1.875 3.217m-123.918 4.887c-1.545 3.347-3.764 7.056-4.931 8.244-1.168 1.187-3.919 4.409-6.114 7.159s-4.786 5.593-5.758 6.318c-.971.726-1.464 1.808-1.095 2.405.392.635.208.8-.445.396-.662-.409-1.95.851-3.165 3.096a752.994 752.994 0 0 1-2.883 5.285c-2.505 4.505-3.235 6.243-2.803 6.675.645.646 5.658-6.803 5.658-8.407 0-.697.627-1.268 1.393-1.268 1.72 0 3.018-2.982 1.326-3.045-.671-.025.131-.621 1.781-1.324 1.65-.703 3-1.696 3-2.205 0-.509.347-.81.772-.669.425.142 1.178-.809 1.673-2.113.496-1.304 1.64-2.654 2.542-3.001.902-.346 1.36-1.082 1.017-1.636-.342-.554-.205-1.007.304-1.007 1.897 0 12.193-19.332 10.955-20.57-.23-.23-1.682 2.32-3.227 5.667m147.248-3.913c.652.652 1.979 1.269 2.95 1.371.971.103 2.554.518 3.516.923 1.211.509 1.75.279 1.75-.746 0-1.372-3.895-2.732-7.825-2.732-1.213 0-1.303.272-.391 1.184m-87.039 1.58c.685.467 1.346 2.06 1.468 3.542.123 1.482.827 2.694 1.564 2.694.807 0 1.042-.498.59-1.25-.563-.937-.35-.925.852.049.882.714 1.827.936 2.1.494.754-1.22-3.6-5.753-5.845-6.085-1.341-.198-1.575-.02-.729.556M283 192.933c0 .587.637 1.067 1.417 1.067.779 0 1.643.563 1.921 1.25.357.885.527.829.583-.191.058-1.055.473-.921 1.547.5.808 1.067 1.483 1.434 1.5.813.04-1.424-1.819-2.928-4.718-3.817-1.359-.417-2.25-.267-2.25.378M254.425 204c.602 6.181 4.415 14.483 11.943 26 7.19 11.002 5.478 4.17-2.547-10.16-3.419-6.107-7.053-13.406-8.075-16.221l-1.857-5.119.536 5.5m66.825 2.662c-.687.278-1.25 1.133-1.25 1.9 0 1.12.486 1.174 2.469.27 3.382-1.541 2.244-3.567-1.219-2.17m-54.401 31.088c.505.963 1.236 3.662 1.623 6 .717 4.331 2.528 5.914 2.528 2.21 0-2.068-3.61-9.96-4.556-9.96-.283 0-.101.787.405 1.75M107 250c0 1.867.267 2.133 1.2 1.2.933-.933.933-1.467 0-2.4-.933-.933-1.2-.667-1.2 1.2m0 4.059c0 .582.45.781 1 .441s1-.816 1-1.059-.45-.441-1-.441-1 .477-1 1.059m162 8.441c0 1.375.173 2.5.383 2.5.211 0 .599-1.125.862-2.5s.09-2.5-.384-2.5c-.473 0-.861 1.125-.861 2.5m-7.321 9.046c-2.349 4.927-2.018 5.765.437 1.11 1.116-2.115 1.852-4.022 1.636-4.238-.217-.216-1.149 1.192-2.073 3.128m2.672 5.878c-3.014 3.167-5.031 7.23-4.068 8.192 1.088 1.088 6.512-4.842 7.095-7.756.847-4.236.62-4.268-3.027-.436m5.649-.802c0 1.329.271 1.398 1.5.378.825-.685 1.5-1.415 1.5-1.622 0-.208-.675-.378-1.5-.378s-1.5.73-1.5 1.622m2.166 2.367c-1.673 2.263-2.166 4.34-2.166 9.124 0 5.986.14 6.324 4.166 10.041 2.292 2.115 4.507 3.846 4.923 3.846.935 0 2.412 4.641 3.954 12.432 1.339 6.761 2.34 6.057 3.458-2.432.917-6.959 6.277-20 8.221-20 3.715 0-5.262-7.439-16.806-13.927l-3.583-2.014-2.167 2.93m-9.029 7.887-3.364 1.793 3.483 2.054 3.482 2.055-.102-3.889c-.056-2.139-.11-3.87-.119-3.847-.009.023-1.531.848-3.38 1.834m-6.058 4.707c.048 1.165.285 1.402.604.605.289-.722.253-1.585-.079-1.917-.332-.332-.568.258-.525 1.312m3.448 2.602c1.435 6.661 11.008 18.288 12.246 14.872.287-.794 1.561-2.481 2.829-3.75 1.269-1.269 1.917-2.307 1.439-2.307-.477 0-4.549-2.729-9.048-6.065l-8.181-6.066.715 3.316m32.058 4.806c-4.42 9.849-4.41 12.044.073 15.009 2.079 1.375 5.271 3.797 7.095 5.383 1.823 1.586 3.477 2.711 3.676 2.5.761-.805-5.984-28.238-7.028-28.584-.604-.201-2.321 2.361-3.816 5.692m-120.918-3.324c-1.197 1.196-.71 1.992 1.962 3.21 3.206 1.461 3.887.956 2.417-1.791-1.105-2.065-3.091-2.708-4.379-1.419M180.5 301c.995 1.1 2.528 1.985 3.405 1.967 1.212-.026 1.028-.506-.766-2-3.079-2.565-4.969-2.542-2.639.033m95.346 7.203c-1.467 3.098-1.428 3.278 1.213 5.5 3.422 2.879 3.941 2.872 3.941-.054 0-2.902-1.938-8.649-2.916-8.649-.397 0-1.404 1.441-2.238 3.203M268 313.5c1.292 1.375 2.574 2.5 2.849 2.5.275 0-.557-1.125-1.849-2.5-1.292-1.375-2.574-2.5-2.849-2.5-.275 0 .557 1.125 1.849 2.5m4.716 4.159c-.604.989 9.125 11.833 9.911 11.047.873-.872-1.207-3.952-5.433-8.047-2.18-2.112-4.195-3.462-4.478-3M286.08 335c1.458 3.061 1.92 3.628 1.92 2.358 0-.537-.7-1.849-1.555-2.917-1.467-1.83-1.487-1.798-.365.559" fill-rule="evenodd"/>
<path fill="#3b404c" stroke="#3b404c" d="M225 59.021c-29.618 2.945-56.865 21.978-70.031 48.92-6.04 12.36-8.651 22.623-9.963 39.166-2.014 25.368-7.247 39.106-20.72 54.393-14.072 15.966-16.827 21.074-18.555 34.403-2.294 17.685-1.283 24.344 4.72 31.097 1.222 1.375 3.416 4.598 4.877 7.163 2.798 4.915 7.177 8.264 12.172 9.309l3 .627-3.019-1.404c-6.067-2.822-12.507-12.339-12.459-18.413.02-2.582.156-2.488 1.884 1.319 2.082 4.584 8.723 11.747 10.101 10.895.491-.304 1.346.295 1.901 1.331 2.45 4.579 16.605 9.173 28.262 9.173 6.115 0 7.622.367 10.486 2.551 4.432 3.381 4.367 3.608-3.105 10.791-5.327 5.121-7.429 8.198-12.082 17.679-3.097 6.313-7.69 14.854-10.206 18.979-9.677 15.868-13.405 31.49-18.821 78.864-1.396 12.208-1.436 14.571-.264 15.743 2.615 2.615 12.758 3.644 30.775 3.124 16.313-.471 17.973-.348 25.426 1.882 4.385 1.313 9.231 2.387 10.769 2.387 1.537 0 5.339 1.125 8.448 2.5 5.525 2.444 6.197 2.5 29.778 2.48 13.269-.011 27.143-.456 30.831-.989 9.942-1.438 42.815-3.989 51.624-4.006 7.597-.014 8.524-.303 15.251-4.741 3.338-2.203 3.856-2.241 21.67-1.6 20.971.754 19.958 1.387 14.312-8.941C356.121 412.836 340 367.369 340 361.481c0-1.141 1.823-3.854 4.05-6.028 2.826-2.758 3.897-4.542 3.542-5.902-.28-1.072.349-3.337 1.396-5.032 2.762-4.468 4.224-11.832 2.992-15.071-.553-1.456-1.895-6.722-2.982-11.701-1.902-8.714-2.201-9.288-7.932-15.257-8.223-8.564-8.995-13.085-3.592-21.047 7.109-10.475 6.58-31.136-1.099-42.973-.724-1.117-2.391-5.167-3.704-9-1.313-3.834-3.454-9.364-4.757-12.291l-2.371-5.32 4.272-3.549c3.988-3.312 4.259-3.855 4.084-8.179-.104-2.547.545-7.556 1.441-11.131 2.858-11.397 1.779-26.715-2.033-28.848-1.397-.782-1.267-1.132.958-2.59 3.208-2.102 6.764-9.479 7.742-16.062l.743-5 .281 4.5c.154 2.475.193 5.512.087 6.75-.243 2.825 1.523 2.956 2.405.178 1.74-5.484-.553-23.64-4.086-32.342-.607-1.495-.466-1.726.643-1.055.781.472.295-.525-1.08-2.216-1.375-1.69-4.75-5.921-7.5-9.401-7.149-9.048-12.212-13.645-18.5-16.799-3.025-1.517-8.081-4.582-11.235-6.81-3.155-2.229-10.943-6.209-17.308-8.844-6.665-2.76-12.344-5.773-13.391-7.104-1-1.272-3.112-2.849-4.692-3.504-3.375-1.399-32.123-1.95-43.374-.832m9.055 5.924c-9.105 9.105-18.148 30.495-19.26 45.555l-.295 4 7.074.632c3.891.348 8.915.944 11.164 1.324l4.09.691 1.166-5.824c4.498-22.447 12.342-39.265 22.456-48.145 4.285-3.762 3.301-4.145-10.7-4.164L240 59l-5.945 5.945m29.361-3.052c-8.777 5.338-19.539 26.659-23.981 47.506-1.342 6.297-1.307 8.806.103 7.397.295-.296 1.609-4.543 2.919-9.438 7.004-26.173 18.18-44.207 26.688-43.065 4.273.573 4.256-.517-.043-2.74-2.469-1.277-3.087-1.24-5.686.34m-95.603 38.79c.721.289 1.584.253 1.916-.079.332-.332-.258-.568-1.312-.525-1.165.048-1.402.285-.604.604M186 109c-1.282.828-1.246.972.25.985.963.008 1.75-.435 1.75-.985 0-1.22-.113-1.22-2 0m-3.295 4.02c-.328 1.255-.021 1.98.839 1.98.746 0 1.716.629 2.156 1.397.685 1.196.986 1.196 2.089 0 1.073-1.162.937-1.397-.809-1.397-1.166 0-1.819-.451-1.47-1.016.346-.559.972-.804 1.392-.544.421.259.765-.091.765-.78 0-2.158-4.387-1.84-4.962.36m131.013 8.143c-.739 9.739-1.981 13.505-6.861 20.813-4.596 6.883-4.597 6.713.027 7.181 2.999.304 3.593-.056 5.212-3.157 3.371-6.455 5.141-15.666 4.409-22.95-.967-9.63-2.14-10.424-2.787-1.887M311.57 119c-1.452 8.212-6.056 17.808-12.593 26.25-2.113 2.729-2.114 2.75-.101 2.75 5.452 0 15.726-23.415 13.896-31.67-.223-1.007-.764.195-1.202 2.67M205 117.5c0 .825.177 1.5.393 1.5.216 0 .652-.675.969-1.5.316-.825.139-1.5-.393-1.5-.533 0-.969.675-.969 1.5m11.607.082c-.334.87-.607 1.717-.607 1.883 0 .166 3.037.598 6.75.961 3.713.362 7.988.9 9.5 1.196 2.237.437 2.75.176 2.75-1.396 0-1.615-1.142-2.122-6.943-3.079-9.145-1.511-10.727-1.451-11.45.435m126.94-.082c.362 1.1 1.447 4.25 2.41 7 .963 2.75 2.101 7.25 2.529 10 .427 2.75.993 4.398 1.258 3.662.844-2.347-1.845-13.448-4.394-18.135-1.354-2.49-2.166-3.627-1.803-2.527m-95.675 3.25c-1.243 1.586-1.208 1.621.378.378.963-.755 1.75-1.543 1.75-1.75 0-.823-.821-.294-2.128 1.372m-36.674 5.47.302 5.22 11.427 1.27c6.285.698 11.543 1.153 11.685 1.012.142-.142.559-2.534.928-5.316l.671-5.057-10.855-1.176c-15.709-1.702-14.511-2.044-14.158 4.047m25.435 2.443c-.679 4.953-.416 5.939 1.3 4.878 1.268-.783 1.453-9.541.203-9.541-.475 0-1.152 2.099-1.503 4.663m84.367.126c0 5.935-2.694 13.81-6.375 18.636-2.507 3.287-2.51 3.321-.574 5.399 2.417 2.595 2.492 4.167.199 4.206-1.611.028-1.604.116.093 1.102 1.014.59 2.882 3.313 4.151 6.053l2.308 4.981 1.598-7.024c2.304-10.131 2.809-15.176 1.283-12.805-2.883 4.476-3.549 4.871-1.961 1.163 2.118-4.946 2.495-23.683.516-25.662-.984-.984-1.238-.174-1.238 3.951m-32.51-1.773c-.346.559-1.047.758-1.559.441-.512-.316-.931.196-.931 1.139 0 1.587.149 1.58 2-.096 1.1-.995 2-1.965 2-2.155 0-.711-.904-.309-1.51.671M198 130c0 1.1.173 2 .383 2 .211 0 .619-.9.907-2 .287-1.1.115-2-.384-2-.498 0-.906.9-.906 2m20 7c0 2.603.364 3.002 2.75 3.014 1.512.007 3.762.285 5 .616 1.969.528 2.25.227 2.25-2.406 0-3.356-1.353-4.224-6.582-4.224-3.131 0-3.418.252-3.418 3m11.579-.346c-1.16 3.024-.512 4.347 2.811 5.735 19.549 8.169 25.103 37.631 10.019 53.152-11.519 11.851-31.307 12.288-42.653.942-8.813-8.813-11.335-27.947-5.25-39.83 3.756-7.335 9.778-12.961 16.385-15.308 3.531-1.254 5.109-2.36 5.109-3.58 0-3.968-8.969-.596-15.327 5.762-14.7 14.7-15.204 40.144-1.099 55.38 7.446 8.042 13.268 10.563 24.426 10.577 30.167.038 46.01-35.603 27.182-61.147-5.597-7.593-20.152-15.465-21.603-11.683m-16.44 5.442c-11.097 3.363-19.267 14.072-20.388 26.723-.335 3.792-.06 5.729.961 6.75.794.794.954 1.431.359 1.431-1.589 0-1.314 2.275 1.032 8.544 8.901 23.793 44.858 22.995 52.295-1.16.566-1.839.32-2.053-1.879-1.632-1.392.266-3.118-.004-3.836-.6-1.01-.838-1.587-.305-2.547 2.349-2.737 7.568-13.2 13.31-22.045 12.098-8.702-1.193-19.091-10.591-19.091-17.27 0-1.281-.349-2.329-.776-2.329-.427 0-.568-1.912-.313-4.25l.463-4.25.774 5.724c1.242 9.192 5.118 15.311 11.899 18.79 16.748 8.591 33.665-5.891 30.005-25.688-3.864-20.903-33.132-23.557-40.677-3.689l-1.467 3.863.554-3.416c1.109-6.838 8.02-13.063 16.647-14.996 14.311-3.208 26.002 7.167 26.458 23.479.226 8.114.71 9.433 3.457 9.433 2.748 0 3.976-3.03 3.976-9.809 0-19.465-18.819-35.258-35.861-30.095m124.463 4.552c-2.406 5.816-6.2 10.286-10.121 11.925-2.848 1.19-3.256 1.967-4.797 9.136-1.874 8.72-2.112 12.291-.82 12.291.475 0 1.147-2.066 1.493-4.591.924-6.735 3.777-12.244 9.387-18.124 3.321-3.479 5.402-6.733 6.254-9.778 1.691-6.04.938-6.503-1.396-.859M291.5 157.084c-3.3 1.6-7.35 2.916-9 2.923-6.082.026-12.903 4.282-16.222 10.12-1.68 2.955-2.992 5.449-2.915 5.541.077.093 3.857.678 8.4 1.3l8.259 1.13 7.739-3.751c8.864-4.296 9.138-4.477 7.609-5.027-.666-.24-.05-1.531 1.5-3.145 1.447-1.506 3.871-4.187 5.388-5.957 2.025-2.363 3.597-3.218 5.916-3.218 4.543 0 3.116-.773-2.693-1.458-2.739-.323-5.656-.763-6.481-.978-.825-.214-4.2.919-7.5 2.52m-5.838-.466c-1.562.846-2.65 1.727-2.42 1.957.474.474 9.758-2.541 9.758-3.169 0-.976-4.747-.192-7.338 1.212m18.674 5.585c-1.156 1.263-2.872 3.819-3.813 5.679l-1.711 3.382 2.59-.65c2.465-.619 2.569-.484 2.15 2.793-.473 3.689-2.48 7.593-3.904 7.593-.479 0-.575-1.575-.214-3.5.375-1.999.25-3.5-.291-3.5-2.962 0-5.072 17.224-3.209 26.189 2.877 13.843 10.638 14.545 17.195 1.555 2.989-5.921 3.033-6.2 1.415-8.94-2.029-3.433-1.32-6.506 2.178-9.45 5.333-4.488.02-22.569-6.802-23.151-2.602-.222-4.014.283-5.584 2m25.228 3.059c-1.662 2.537-4.111 12.694-4.863 20.168-.446 4.43-.204 5.221 2.391 7.815 1.587 1.588 3.277 2.645 3.754 2.35 2.547-1.574 4.665-23.481 2.885-29.845-.935-3.342-2.2-3.49-4.167-.488m-66.39 4.052c-2.188 2.33-2.872 4.686-1.359 4.686.448 0 1.566-1.575 2.484-3.5 1.963-4.117 1.795-4.293-1.125-1.186M141.136 176c-2.687 8.861-8.154 17.893-16.853 27.841-10.142 11.598-14.873 18.974-15.817 24.659l-.664 4 3.783-6c2.081-3.3 6.771-9.375 10.424-13.5 11.275-12.733 21.591-31.957 20.805-38.772-.278-2.416-.47-2.213-1.678 1.772m148.114 1.031c-3.066 1.232-2.825 1.969.643 1.969 1.649 0 3.141-.645 3.469-1.5.642-1.675-.724-1.831-4.112-.469m-28.602 2.654c-.356.357-.648 1.661-.648 2.899 0 1.237-.94 4.425-2.088 7.083-2.711 6.273-1.622 11.667 4.607 22.833 9.224 16.531 10.537 19.85 11.484 29.027 1.063 10.306-.219 8.721 9.497 11.752 19.963 6.229 28.69 3.807 30.615-8.497.575-3.673 1.521-5.815 3.106-7.032a139.483 139.483 0 0 0 3.585-2.842c1.497-1.251 1.216-7.497-.325-7.235-.56.095-2.36.461-4 .813-2.19.47-2.569.374-1.428-.362.854-.552 2.717-1.159 4.139-1.349 4.76-.638 8.038-6.279 4.808-8.275-1.951-1.206-1.011-5.504 1.696-7.757 8.925-7.427 9.57-10.288 3.22-14.296-2.247-1.418-4.834-3.896-5.75-5.506-2.039-3.584-3.166-3.749-3.166-.464 0 4.641-4.989 15.917-8.749 19.773-8.759 8.982-17.111 2.696-18.932-14.25-.325-3.025-1.025-6.342-1.555-7.371-.677-1.314-.636-1.668.136-1.191.659.408 1.1-.118 1.1-1.312 0-2.431-.606-2.616-15-4.597-6.325-.87-12.446-1.787-13.602-2.038-1.155-.25-2.393-.163-2.75.194m42.431 3.898c.048 1.165.285 1.402.604.605.289-.722.253-1.585-.079-1.917-.332-.332-.568.258-.525 1.312M314.787 188c-.242 1.65-.069 3 .386 3s.827-.638.827-1.418c0-.78.273-2.13.607-3 .334-.87.16-1.582-.387-1.582-.546 0-1.191 1.35-1.433 3m-14.287 1c-.34.55-.141 1 .441 1s1.059-.45 1.059-1-.198-1-.441-1-.719.45-1.059 1M253 199.29c0 7.622 4.259 17.356 14.312 32.71 4.303 6.573 4.825 7.068 4.217 4-.746-3.768-1.096-4.519-10.379-22.241-3.382-6.457-6.15-12.87-6.15-14.25 0-1.38-.45-2.509-1-2.509s-1 1.03-1 2.29m67.5 8.71c-.782 1.266.542 1.266 2.5 0 1.293-.835 1.266-.971-.191-.985-.93-.008-1.969.435-2.309.985m-204.191 15.311c-4.98 7.398-8.618 16.322-7.867 19.296.656 2.598 1.07 1.893 4.058-6.902 1.831-5.387 4.078-10.938 4.994-12.336.916-1.399 1.507-2.701 1.313-2.895-.193-.194-1.318 1.083-2.498 2.837m149.627 13.022c1.135 2.658 2.064 6.371 2.064 8.25 0 1.879.188 3.417.418 3.417.23 0 1.13.273 2 .607 2.537.974 1.937-2.652-1.525-9.216-4.01-7.604-5.599-9.248-2.957-3.058m-159.484 11.002c-1.009 4.021.176 11.083 2.589 15.428 1.142 2.055 1.788 2.837 1.436 1.737-.352-1.1-.887-5.375-1.19-9.5-.65-8.861-1.773-11.897-2.835-7.665M269.716 260c-2.156 5.085-4.606 12.443-4.26 12.79.873.873 5.64-10.075 5.279-12.123-.29-1.642-.537-1.803-1.019-.667m-6.495 7.75c-2.096 3.009-4.487 9.317-3.795 10.009.452.452 3.956-6.003 5.587-10.293 1.227-3.227.582-3.125-1.792.284m2.164 7.728c-6.281 4.951-7.035 12.654-1.552 15.857l3.167 1.849v-4.649c0-4.604-.021-4.633-2.223-3.092-3.907 2.737-4.366 1.667-.611-1.428 2.845-2.345 3.703-3.845 4.004-7 .211-2.208.371-4.01.356-4.004-.014.006-1.428 1.116-3.141 2.467m4.615 1.166c0 2.309.187 2.447 1.664 1.228 1.508-1.244 1.552-1.162.465.878-.66 1.238-1.634 2.25-2.164 2.25-1.537 0-1.117 9.886.567 13.349.843 1.733 3.471 4.61 5.839 6.394 4.033 3.037 4.388 3.702 5.599 10.5.711 3.991 1.506 7.817 1.766 8.501.778 2.044 2.264.342 2.264-2.593 0-6.45 6.599-25.151 8.874-25.151.542 0-.069 1.913-1.358 4.25-1.289 2.337-3.029 6.6-3.868 9.472l-1.524 5.223 8.06 6.072c8.487 6.396 9.433 6.737 7.963 2.871-.499-1.315-2.122-8.015-3.607-14.889-3.101-14.368-4.458-16.205-17.93-24.282-11.343-6.801-12.61-7.21-12.61-4.073m-12.985 14.939c.009 1.605.475 3.592 1.037 4.417.733 1.075.832.366.352-2.5-.83-4.961-1.409-5.759-1.389-1.917m3.007 1.58c.038 4.092 3.57 10.332 7.987 14.112 4.173 3.573 5.991 3.964 5.991 1.288 0-.725.745-1.936 1.655-2.691 1.499-1.243 1.493-1.06-.063 1.95-1.231 2.381-1.419 3.681-.664 4.592.58.698.843 1.482.584 1.74-.258.259 1.6 2.468 4.129 4.908 3.218 3.105 4.223 3.707 3.346 2.005-.689-1.338-1.381-4.143-1.537-6.232-.556-7.465-2.315-10.683-7.785-14.25-2.841-1.852-7.078-4.806-9.415-6.563-4.205-3.161-4.25-3.17-4.228-.859m-88.355 1.504c-1.457 1.457-.514 3.263 2.487 4.76 4.046 2.019 3.977 2.048 2.759-1.157-1.352-3.555-3.689-5.161-5.246-3.603m6.355 3.069c.046 1.567 3.555 5.074 5.728 5.725 3.545 1.062 2.632-.942-1.75-3.842-2.2-1.456-3.99-2.303-3.978-1.883m86.84 11.764c2.051 3.794 5.003 6.968 5.77 6.202.422-.423-.946-2.441-3.041-4.485-2.096-2.044-3.323-2.817-2.729-1.717m77.668 1.5c.503.825.991 2.007 1.085 2.626.095.62.463 2.195.82 3.5.647 2.368.645 2.368-.858-.126-.828-1.375-1.522-2.024-1.542-1.441-.019.582.59 1.913 1.354 2.958.764 1.045 1.171 2.593.905 3.441-.392 1.253-.299 1.284.5.164.569-.798 1.515-1.049 2.249-.596.906.561 1.017.384.39-.621-.481-.773-1.01-2.27-1.174-3.327-.164-1.056-.736-2.448-1.27-3.092-.535-.643-.74-1.402-.456-1.686.283-.283-.257-1.142-1.201-1.907-1.488-1.208-1.595-1.194-.802.107m-66.033 3.995c.338.547 1.602 1.512 2.809 2.145 2.179 1.143 2.181 1.136.289-.994-1.909-2.15-4.254-3.021-3.098-1.151M272 317.976c0 .538 2.475 3.573 5.5 6.747 6.778 7.11 8.015 4.416 1.415-3.082-3.793-4.309-6.915-5.964-6.915-3.665m11.713 12.644c-.341.342.778 3.379 2.488 6.75 3.772 7.44 4.976 5.88 1.433-1.857-2.581-5.639-2.845-5.969-3.921-4.893M272 332.059c0 .582-.45.781-1 .441s-1-.216-1 .274c0 1.465 1.104 2.123 2.598 1.55 1.595-.612 1.923-3.324.402-3.324-.55 0-1 .477-1 1.059" fill-rule="evenodd"/>
<path fill="#262626" stroke="#262626" d="M216 60.412c-33.161 7.463-60.234 34.033-67.951 66.688-1.881 7.957-3.949 28.044-4.468 43.4-.424 12.538-8.416 28.483-21.796 43.486-5.83 6.537-7.924 10.372-3.282 6.011l2.504-2.352-.216 2.605c-.118 1.433-.526 2.414-.905 2.179-1.517-.937-5.94 9.45-9.611 22.571-.31 1.108-.762.864-1.731-.934-1.561-2.897-.981-7.878 1.2-10.316.861-.963 1.159-1.757.661-1.765-.498-.009-.294-.402.452-.875.946-.6 1.021-1.067.25-1.544-.609-.376-1.107-.207-1.107.375 0 2.012-.174 2.564-1.198 3.798-.566.681-1.369 1.029-1.785.771-.416-.257-.727.998-.691 2.79.036 1.791-.274 3.807-.689 4.479-.415.671-.515 1.221-.221 1.221.294 0 .107 1.125-.416 2.5-.611 1.607-.602 2.5.025 2.5.536 0 .975-.9.975-2s.395-2 .879-2c1.591 0 3.042 5.374 3.645 13.5.326 4.4.642 8.543.701 9.207.145 1.616 2.549 2.467 3.343 1.183.348-.563-.2-1.701-1.218-2.531-1.017-.829-1.287-1.222-.6-.874.911.461 1.268-.673 1.317-4.176l.067-4.809 1.321 4.228c1.977 6.327 10.545 18.758 10.545 15.3 0-.6-.647-1.339-1.437-1.642a1.533 1.533 0 0 1-.892-1.97c.375-.978 1.5-.098 3.62 2.832 4.847 6.699 11.323 11.184 15.404 10.668.993-.126 3.155.337 4.805 1.027 1.953.818 5.565 1.071 10.353.726 7.323-.528 7.366-.517 10.783 2.9 1.887 1.887 3.855 3.431 4.374 3.431.519 0 1.678 1.121 2.576 2.491.898 1.371 2.053 2.232 2.567 1.914.514-.317 1.59-.033 2.391.631.801.665 1.456.859 1.456.431s1.109.513 2.465 2.09c1.71 1.991 2.109 3.088 1.304 3.586-1.346.832-4.724-.76-6.487-3.056-.768-1.001-1.23-1.137-1.25-.368-.018.67-.661.977-1.431.681-.769-.295-1.684-.075-2.032.488-.348.564-1.367.743-2.265.398-.966-.37-1.379-.217-1.012.377.341.552-.028 1.004-.82 1.004-1.119 0-1.182-.312-.281-1.397.961-1.158.688-1.278-1.607-.702-2.621.658-2.696.584-1.434-1.437 1.39-2.225 2.85-2.822 2.85-1.166 0 1.516 3.767 3.221 4.499 2.036.342-.553-.549-1.45-1.979-1.993-2.325-.884-2.473-1.227-1.397-3.237 1.345-2.514-1.982.169-9.352 7.542-3.666 3.668-4.294 6.209-1.245 5.039.805-.309 1.214-.964.909-1.457-.304-.492-.125-.895.399-.895s1.22.698 1.548 1.552c.327.854.197 1.306-.289 1.006-1.267-.784-2.113 1.983-1.015 3.32.628.764.564.828-.2.2-.617-.507-1.854-.671-2.75-.365-1.297.443-1.259.268.185-.861 1.745-1.364 1.743-1.422-.058-1.558-1.425-.107-3.241 2.528-7.604 11.033-3.153 6.145-7.52 14.098-9.704 17.673-7.979 13.055-11.76 27.137-15.96 59.436-2.949 22.683-3.78 33.104-2.724 34.161.477.476 1.035-3.565 2.291-16.597.239-2.475.698-6.3 1.02-8.5.322-2.2.739-5.125.926-6.5.187-1.375.592-4.3.9-6.5.308-2.2.803-6.025 1.1-8.5.629-5.24 1.599-11.853 2.053-14 4.427-20.932 15.224-41.992 22.495-43.876 8.351-2.164 10.329-2.949 7.652-3.035-1.539-.049-4.127.598-5.75 1.437-1.622.839-2.95 1.115-2.95.614 0-.502 1.688-1.66 3.75-2.575 2.063-.914 4.518-2.082 5.456-2.595 2.885-1.577 10.21-2.453 9.388-1.122-.392.633-.235 1.152.347 1.152s1.059-.477 1.059-1.059.43-.793.956-.468.715 1.364.419 2.309c-.499 1.593-.433 1.59.904-.032 1.598-1.94 3.721-2.334 3.721-.691 0 .582.355.839.79.571.836-.517 13.012 2.511 14.973 3.724.635.392 2.36 3.398 3.833 6.68 1.472 3.281 3.066 5.966 3.541 5.966.474 0 .863.576.863 1.279 0 .704.942 1.941 2.093 2.75a69.483 69.483 0 0 1 4.153 3.221c1.133.963 2.421 1.75 2.863 1.75 1.646 0 7.778 4.783 7.098 5.537-.389.431-.207.498.405.15 1.44-.821 9.497 2.328 8.808 3.442-.288.467.174.58 1.028.253.854-.328 1.552-.135 1.552.428s-.406 1.173-.901 1.357c-.496.183-.271.913.5 1.622 1.155 1.063 1.401 1.009 1.401-.309 0-.879.457-1.315 1.016-.97.559.346.71 1.124.336 1.729-.431.698-.098.878.91.491 1.2-.461 1.962.48 3.104 3.83 1.305 3.829 1.315 4.44.073 4.44-.791 0-1.439.45-1.439 1s.723 1 1.607 1c1.055 0 1.398.544 1 1.582-.334.87-.607 1.796-.607 2.059 0 .262-.526.152-1.17-.246-.805-.498-.954-.16-.476 1.086.754 1.965-1.773 5.519-3.926 5.519-.694 0-1.433.515-1.643 1.144-.209.629-1.223-1.733-2.252-5.25-3.114-10.643-4.886-10.568-2.051.086.817 3.069 1.079 5.859.596 6.342-1.113 1.113-3.458-5.898-2.495-7.457.441-.712.295-.907-.371-.496-.646.4-1.804-.87-2.822-3.096-.95-2.075-1.945-4.18-2.213-4.678-.267-.497.034-.583.668-.19.635.392 1.155.236 1.155-.346s-.723-1.059-1.607-1.059c-1.041 0-1.397-.546-1.011-1.552.383-.998.191-1.302-.538-.851-.775.479-.976-.128-.633-1.918.275-1.44.114-2.38-.357-2.089-.472.292-1.279-.578-1.794-1.933-.824-2.166-3.06-4.577-3.06-3.299 0 .262.957 2.651 2.126 5.309a274.517 274.517 0 0 1 3.869 9.333 934.43 934.43 0 0 0 3.909 9.876c2.154 5.346 2.155 5.373.131 4.843-2.802-.732-2.55.181.884 3.208 3.325 2.931 11.902 24.679 15.182 38.494 3.371 14.204 5.034 18.579 7.061 18.579 2.226 0 2.237.554-.114-5.632-1.073-2.823-1.672-5.41-1.332-5.75.339-.34-.02-.625-.799-.633-1.167-.013-1.152-.187.083-.985.825-.533.996-.976.38-.985-1.059-.014-2.518-4.403-3.936-11.832-.348-1.825-1.262-4.525-2.032-6-1.645-3.154-1.805-4.544-.423-3.69.566.35.734-.051.393-.941-.328-.854-.95-1.552-1.382-1.552-1.275 0-2.589-4.585-3.296-11.5-.112-1.1-.587-2.28-1.055-2.621-.467-.342 1.22-.663 3.75-.714 2.531-.05 4.601.342 4.601.871 0 .915-.628 1.134-3.918 1.371-2.87.206-2.087 2.434 1.115 3.171 7.617 1.755 15.736-.845 21.903-7.012l3.401-3.401-.293 4.168c-.378 5.371 2.497 10.099 7.383 12.141 5.288 2.209 7.531 1.898 3.599-.5-4.044-2.465-6.56-7.963-5.641-12.328.644-3.06 4.96-8.646 6.68-8.646 2.202 0 13.793-11.848 16.731-17.101 1.988-3.554 2.539-6.176 2.87-13.649.46-10.42 1.398-11.635 3.196-4.14 2.492 10.386-1.894 23.885-9.359 28.807-4.528 2.986-4.08 3.847.797 1.533 9.535-4.524 14.062-19.918 9.857-33.518-.924-2.988-1.55-6.107-1.393-6.932 2.005-10.488 2.955-13.468 4.199-13.168 2.235.541-3.137-4.63-8.157-7.851-5.297-3.4-5.97-3.566-5.97-1.481 0 .825.477 1.5 1.059 1.5s.73-.562.328-1.25c-.402-.687.247-.393 1.441.655 1.195 1.048 2.172 2.15 2.172 2.45 0 .3-.519.026-1.153-.608-1.747-1.747-4.847.356-4.847 3.288 0 3-1.616 3.249-2.524.39-.362-1.142-.903-1.831-1.203-1.532-.299.3.202 1.684 1.115 3.076.912 1.392 1.394 2.531 1.07 2.531C283.31 324 274 313.846 274 312.594c0-.7-1.218-1.828-2.707-2.506-1.489-.679-3.319-2.108-4.068-3.178-.749-1.069-1.792-1.677-2.318-1.352-.526.325-.864.22-.751-.234.336-1.352-3.564-7.311-4.789-7.318-1.307-.007-2.334-3.227-2.353-7.378-.012-2.492.193-2.701 1.549-1.576 1.362 1.131 1.483.981.944-1.166-.793-3.163.915-7.647 4.244-11.136 1.493-1.565 2.066-2.75 1.329-2.75-.739 0-1.047-.643-.718-1.5 1.156-3.015-.377-1.392-2.362 2.5-2.197 4.306-4.599 5.525-3.45 1.75.377-1.238 2.24-4.95 4.141-8.25l3.455-6-.594 4c-.737 4.971.901 2.62 1.846-2.65.36-2.007 1.389-4.257 2.285-5 2.505-2.074 1.152 7.529-1.581 11.226-1.506 2.036-1.683 2.7-.611 2.289 1-.384 1.536.048 1.588 1.278.043 1.021.281 1.369.528.774.858-2.072 23.176 11.064 26.584 15.647.997 1.34 3.158 8.414 4.802 15.72 1.645 7.306 3.697 14.649 4.559 16.317 1.531 2.96 1.519 3.007-.484 1.935-1.948-1.042-1.992-.956-.851 1.683.662 1.529 2.009 3.854 2.993 5.166.985 1.312 1.79 2.93 1.79 3.597 0 .667.918 2.271 2.04 3.565 2.066 2.381 2.649 11.409.811 12.545-2.084 1.288.056 14.724 3.076 19.316 1.661 2.526 4.021 6.505 5.245 8.842 1.225 2.337 2.619 4.25 3.099 4.25.479 0 1.547.675 2.372 1.5s2.313 1.5 3.306 1.5c2.181 0 3.6 1.645 4.315 5 .293 1.375 1.666 6.325 3.052 11 2.645 8.929 4.684 20.438 4.684 26.442 0 2.927.366 3.558 2.062 3.558 1.822 0 1.992-.436 1.463-3.75a830.698 830.698 0 0 1-1.578-10.641c-.539-3.791-1.23-7.889-1.536-9.108-.306-1.22.151-3.911 1.016-5.981 1.949-4.664 1.958-5.048.073-3.163-.825.825-1.5 2.072-1.5 2.772 0 2.537-1.71-.709-3.493-6.629-.994-3.3-1.983-6.486-2.198-7.079-.252-.694 1.23-.988 4.15-.823 4.682.264 6.282-1.089 2.291-1.937-1.576-.335-1.377-.431.665-.32 2.7.147 3.05.639 4.739 6.659 3.465 12.352 12.552 32.888 16.813 38 1.146 1.375.063-1.568-2.408-6.539-5.179-10.419-9.662-22.263-17.143-45.29-5.834-17.954-5.864-19.302-.515-23.256 1.651-1.221 3.259-2.889 3.573-3.709.472-1.229.306-1.269-.951-.225-2.314 1.92-1.86.446 1.977-6.415 3.64-6.508 4.574-13.497 2.414-18.066-.768-1.625-.841-1.469-.389.835.657 3.351-.279 6.935-1.597 6.121-.51-.316-.928-1.822-.928-3.348 0-1.526-.251-3.026-.558-3.333-1.027-1.027-4.33.411-4.772 2.078-.241.906-.49.261-.554-1.434-.064-1.694-1.239-5.294-2.612-8-2.946-5.807-2.945-5.802-.952-5.037.976.374 1.299.187.872-.505-.374-.605-.089-1.466.634-1.913 1.083-.669 1.081-1.092-.015-2.412-.73-.88-1.037-1.891-.682-2.247 1.028-1.028 5.346 3.567 7.586 8.071l2.051 4.124-.633-4c-.885-5.597-2.799-8.967-6.848-12.055-8.535-6.51-9.398-12.458-3.47-23.914 3.929-7.592 4.042-8.088 3.877-16.956-.164-8.817-2.06-16.575-4.05-16.575-.502 0-.63-1.125-.285-2.5.424-1.688.213-2.5-.647-2.5-.702 0-.989-.287-.638-.637.35-.351-.28-1.926-1.402-3.5-1.121-1.575-1.771-2.863-1.444-2.863.326 0-.186-1.463-1.138-3.25s-1.639-3.588-1.526-4c.113-.412-.271-.75-.853-.75s-.827-.376-.543-.835c.713-1.154-1.538-8.197-2.441-7.638-.402.248-.711-.106-.687-.788.137-3.795-.377-5.791-1.338-5.197-.588.363-.838 1.261-.556 1.995.281.733.01 1.501-.603 1.705-.73.244-.468 1.465.76 3.544 1.848 3.129 1.845 3.212-.226 6.012-1.397 1.891-1.927 3.738-1.585 5.528.417 2.184-.238 3.393-3.489 6.432-2.792 2.61-4.208 4.907-4.682 7.593-2.312 13.101-11.266 15.745-31.551 9.313-7.983-2.531-9.593-4.745-9.935-13.664-.059-1.55-.385-2.045-.857-1.303-.493.777-1.739-.542-3.542-3.75-4.623-8.224-4.596-5.548.037 3.68 3.382 6.736 4.079 8.931 3.181 10.012-1.457 1.756-3.884.011-3.884-2.793 0-1.05-.948-4.707-2.106-8.128-1.158-3.42-2.216-7.189-2.352-8.375-.136-1.187-1.596-4.562-3.244-7.5-5.267-9.387-7.918-18.198-7.399-24.593.15-1.858 1.874-1.512 2.492.5.295.963.374.427.175-1.191s.214-3.868.917-5c.704-1.132 1.556-3.409 1.894-5.059.368-1.797-.531-.56-2.243 3.082-9.999 21.278-38.05 27.538-54.678 12.203-14.05-12.959-17.04-33.751-7.23-50.285 2.284-3.85 5.184-7.813 6.445-8.808 1.26-.994 2.187-2.323 2.06-2.953-.127-.63.444-1.211 1.269-1.29.825-.079 2.089-.213 2.809-.297.721-.084.988-.671.596-1.307-.4-.646-.279-.885.275-.542.545.336 2.672.095 4.728-.536 2.959-.908 3.906-.877 4.54.149.529.856.802.411.802-1.309 0-2.218-.438-2.607-2.941-2.607-1.617 0-3.865-.495-4.995-1.1-1.131-.605-1.834-.717-1.563-.25.271.468-.349 1.716-1.379 2.775-2.838 2.919-2.538-1.453.557-8.1 2.229-4.787 2.633-5.141 5.371-4.709 2.654.418 3.006.158 3.397-2.506.326-2.217-.005-3.088-1.303-3.427-1.884-.493-1.94-.007 1.799-15.683 4.017-16.838 9.427-27.316 18.6-36.021l3.793-3.599-8.793-.103c-4.836-.057-11.268.454-14.293 1.135m49.5 4.766c-2.438 1.363-5.5 4.446-5.5 5.54 0 .44-.808 1.306-1.796 1.923-3.773 2.356-12.021 21.283-15.626 35.859l-2.227 9-3.425-.291c-2.325-.197-2.99.004-2.069.626.838.565 1.103 1.715.693 3.007-.53 1.671-.15 2.22 1.893 2.733 1.579.396 2.557 1.343 2.557 2.474 0 1.008.45 2.111 1 2.451.55.34 1 .12 1-.489 0-2.124 6.987-12.011 8.488-12.011 1.892 0 2.086 5.941.262 8.035-.687.789-.012.351 1.5-.974s2.75-2.09 2.75-1.7c0 .783-3.098 5.847-4.062 6.639-.335.275-1.154 1.4-1.821 2.5-1.159 1.912-1.186 1.901-.597-.25.698-2.554-.977-3.108-1.925-.637-.596 1.553-1.863 1.536-5.771-.078-1.304-.538-1.748-.064-2 2.136-.275 2.402-.739 2.798-3.074 2.626-3.967-.293-3.387 1.361.75 2.137 1.925.361 3.5 1.032 3.5 1.49 0 .458 1.312 1.377 2.917 2.041 7.017 2.907 15.293 16.624 16.913 28.035.508 3.575.979 5.513 1.047 4.307.067-1.207 1.108-2.884 2.313-3.727 2.687-1.882 3.33-1.42 1.856 1.334-.614 1.147-.885 2.086-.602 2.086.284 0 1.46-1.851 2.614-4.114 1.155-2.263 2.969-4.342 4.032-4.62 1.062-.278 6.251-2.697 11.53-5.377 8.675-4.404 12.418-5.378 10.837-2.82-.758 1.228.874 1.2 2.109-.035 1.276-1.276 5.586-1.316 12.907-.121 7.018 1.146 7.422.964 4.596-2.069l-2.132-2.288 2.282-1.756c1.254-.965 1.874-1.766 1.376-1.778-.498-.012-.164-.841.742-1.842 2.65-2.928 5.663-13.039 5.663-19.003 0-3.031.264-5.246.587-4.923 2.124 2.124 3.349 16.133 2.02 23.094-.456 2.39-.371 3.624.225 3.256.531-.329 1.129 1.188 1.34 3.402.209 2.197-.017 3.994-.503 3.994-.485 0-.629.661-.32 1.468.31.807.133 1.734-.393 2.059-.526.325-.949 1.127-.941 1.782.011.796.259.842.75.139.404-.579 2.356-1.806 4.337-2.727 4.24-1.971 8.102-7.415 10.545-14.868 1.576-4.808 1.826-5.098 2.454-2.853.6 2.144.714 1.966.799-1.25.055-2.062.51-3.75 1.012-3.75s.788 1.125.637 2.5c-.15 1.375.123 2.5.608 2.5.484 0 .599 1.125.254 2.5-.372 1.479-.199 2.5.423 2.5 3.009 0-1.132-25.721-5.031-31.25-2.159-3.062-4.397-3.732-3.34-1 2.115 5.466 1.873 7.149-.983 6.845-1.625-.173-3.335-1.275-4.183-2.694-1.056-1.767-1.266-1.873-.796-.401.351 1.1.837 3.35 1.079 5l.44 3-1.101-2.773c-.623-1.57-1.746-2.654-2.586-2.5-.949.174-1.982-1.173-2.857-3.727-1.081-3.155-1.095-3.63-.063-2.25 1.806 2.417 2.899 2.202 1.557-.305-.605-1.131-.92-2.593-.7-3.25.22-.657 1.131.155 2.025 1.805.894 1.65 1.643 2.411 1.665 1.691.022-.72.523-1.01 1.114-.645.624.386.558-.162-.158-1.309-.677-1.085-.953-2.699-.612-3.588.741-1.93 3.45-1.162 3.889 1.104.255 1.316 4.807 2.751 4.807 1.515 0-.527-7.378-9.354-12.984-15.533-2.572-2.835-7.048-6.229-10.5-7.96-3.309-1.66-8.145-4.57-10.747-6.468-2.67-1.946-5.242-3.133-5.904-2.723-.68.42-.908.295-.543-.297.556-.898-13.097-7.57-21.454-10.483-1.577-.55-2.868-1.374-2.868-1.832 0-.458-1.359-.443-3.019.034-1.852.531-2.796.504-2.441-.07.768-1.244-.572-1.137-3.04.242M169.185 95.75c-6.147 8.665-11.764 22.848-9.925 25.063.882 1.063 1.328.891 2.276-.88.781-1.46 1.419-1.815 1.891-1.052.391.633 1.13.893 1.642.576.512-.316.931.182.931 1.106 0 1.382.268 1.46 1.5.437 1.273-1.057 1.507-.81 1.547 1.628.049 3.049-.145 3.408 4.797-8.878 1.761-4.378-.421-3.183-2.739 1.5-1.157 2.338-2.104 3.445-2.104 2.46-.001-.984.908-3.572 2.019-5.75 1.972-3.865 1.586-5.166-.82-2.76-1.481 1.481-1.545.384-.147-2.516.73-1.514.271-1.264-1.495.816-3.599 4.237-3.179 2.469 1.413-5.947 3.628-6.65 4.058-8.553 1.93-8.553-.42 0-1.643 1.237-2.716 2.75m13.699 14.918c-3.348 4.867-5.663 11.253-6.464 17.832-.473 3.89-.447 3.932.958 1.514l1.445-2.485 1.783 3.107 1.783 3.107 1.665-3.105c1.258-2.345 2.447-3.168 4.86-3.363 1.76-.143 2.938.155 2.624.664-.314.507-.173 1.168.313 1.469.684.422 5.149-10.77 5.149-12.908 0-.251-1.137.061-2.527.694-3.345 1.524-4.558.233-5.209-5.547-.702-6.228-2.571-6.515-6.38-.979m118.322 3.116c-.657 3.181-3.179 9.736-5.603 14.566-2.504 4.99-3.639 8.088-2.628 7.172 3.33-3.013 9.123-16.071 9.727-21.923.748-7.251.021-7.161-1.496.185m-125.452 2.966c-3.113 7.103-4.135 11.25-2.773 11.25.56 0 .948-.338.86-.75-.087-.412.181-1.65.595-2.75 3.893-10.33 4.914-12.402 5.831-11.835.605.374.743.161.328-.51-1.316-2.13-2.307-1.189-4.841 4.595m93.382-2.653c-.655 1.979-3.624 7.716-6.599 12.75-2.974 5.034-5.003 9.153-4.508 9.153.495 0 1.434-1.012 2.086-2.25.651-1.238 1.5-2.475 1.885-2.75 1.377-.983 9.129-18.112 8.732-19.294-.223-.663-.941.413-1.596 2.391m44.809-2.597c-.1.55-.129 1.338-.063 1.75.065.412-.309.75-.832.75-.522 0-1.481 2.7-2.13 6-.649 3.3-1.598 6-2.109 6-.511 0-.648.454-.305 1.009.706 1.143-6.128 13.723-10.273 18.911l-2.733 3.42 3.3-.655c1.815-.36 3.096-.324 2.848.08-.248.404.805.78 2.341.836 4.952.179 6.45 1.15 4.874 3.161-1.231 1.57-1.195 1.606.376.375.956-.75 1.525-1.71 1.264-2.133-.262-.423.531-2.048 1.761-3.612s2.112-2.97 1.96-3.125c-.151-.155.471-2.851 1.384-5.991 1.236-4.252 1.516-7.888 1.097-14.243-.491-7.446-2.24-15.391-2.76-12.533m-112.833 8.592c-3.913 7.646-5.283 14.571-2.685 13.574.955-.366 2.325-.666 3.043-.666.719 0 1.623-1.687 2.009-3.75.387-2.062 1.787-6.043 3.112-8.846 2.966-6.275 2.967-6.404.024-6.404-1.911 0-3.004 1.21-5.503 6.092m17.701-4.409c.721.289 1.584.253 1.916-.079.332-.332-.258-.568-1.312-.525-1.165.048-1.402.285-.604.604m8.456 1.01c.973.254 2.323.237 3-.037.677-.274-.119-.481-1.769-.461-1.65.02-2.204.244-1.231.498M327.5 117c-.34.55-.141 1 .441 1s1.059-.45 1.059-1-.198-1-.441-1-.719.45-1.059 1m-31.853 2.792c-.558 1.581-1.349 2.12-2.552 1.738-1.181-.375-2.179.258-3.089 1.958-1.258 2.352-6.006 3.698-6.006 1.703 0-.445-.62-1.657-1.378-2.693-1.471-2.012-4.622-.29-4.622 2.526 0 .642-.949 2.5-2.109 4.129-2.122 2.98-1.88 5.236.326 3.03 1.868-1.868 3.754-1.389 4.741 1.206.824 2.169 4.442 2.869 8.042 1.556.275-.1.95-.091 1.5.02s.678-.12.285-.513c-.709-.709 3.811-9.392 5.497-10.561.483-.334.719-1.909.525-3.5-.338-2.776-.385-2.8-1.16-.599m-22.856 6.708c-2.003 4.125-3.249 7.5-2.768 7.5 2.069 0 7.977-10.479 7.977-14.149 0-2.531-1.976-.009-5.209 6.649m72.24-6c0 .55.436 1.675.969 2.5.533.825.969 1.05.969.5s-.436-1.675-.969-2.5c-.533-.825-.969-1.05-.969-.5m-120.762 1.193c.973.254 2.323.237 3-.037.677-.274-.119-.481-1.769-.461-1.65.02-2.204.244-1.231.498m30.435 4.247c-2.717 3.228-3.401 5.06-1.892 5.06 1.254 0 5.367-5.962 4.959-7.187-.199-.598-1.579.359-3.067 2.127m13.849 1.56c-1.479 2.524-2.537 5.047-2.351 5.606.186.559 1.595-1.309 3.129-4.15 3.496-6.473 2.86-7.663-.778-1.456m24.011-2.793c-.542 1.425-.428 1.54.56.56.684-.679.991-1.486.683-1.793-.308-.308-.867.247-1.243 1.233m19.43 1.543c-.014 3.296-2.389 9.052-6.128 14.856-2.265 3.517-3.211 5.581-2.102 4.588 4.102-3.673 11.379-20.694 8.847-20.694-.336 0-.614.563-.617 1.25m-22.744 3.79c-1.238 1.527-2.25 3.372-2.25 4.1 0 .728 1.165-.39 2.589-2.486 3.073-4.522 2.856-5.556-.339-1.614m58.908-.04c0 1.375.227 1.938.504 1.25.278-.687.278-1.812 0-2.5-.277-.687-.504-.125-.504 1.25m-130.345 10.683c.721.289 1.584.253 1.916-.079.332-.332-.258-.568-1.312-.525-1.165.048-1.402.285-.604.604m-16.707 7.218c-1.708 1.596-3.096 3.283-3.084 3.75.012.467.8-.051 1.75-1.151a49.126 49.126 0 0 1 3.692-3.75c1.081-.963 1.691-1.75 1.356-1.75-.335 0-2.006 1.306-3.714 2.901M244.094 154c2.897 4.49 2.907 4.501 2.901 3.417-.003-.505-1.165-2.267-2.583-3.917l-2.577-3 2.259 3.5m-39.222.75c-1.243 1.586-1.208 1.621.378.378 1.666-1.307 2.195-2.128 1.372-2.128-.207 0-.995.787-1.75 1.75m-9.892 1.774c-.696.838-1.071 1.718-.835 1.955.237.236.98-.449 1.651-1.524 1.452-2.325.968-2.58-.816-.431m108.498 2.741c-1.462 1.258-3.855 4.453-5.318 7.101-2.187 3.958-3.905 5.479-9.66 8.553l-7 3.74-9-1.195c-4.95-.658-9.788-1.529-10.75-1.937-1.348-.57-1.75-.256-1.75 1.366 0 1.496.652 2.129 2.25 2.181 1.238.041 3.375.263 4.75.492 4.162.695 15.19 2.291 20.5 2.966l5 .636-2.208-2.084c-1.215-1.146-2.677-2.084-3.25-2.084-1.981 0-1.034-1.769 1.208-2.255 1.238-.268 3.038-.819 4-1.223 2.228-.937 2.394 1.692.242 3.843-.954.954-1.132 1.74-.483 2.14.563.348.821.961.573 1.362-.247.401-.062 1.356.412 2.123.567.917.287 1.832-.816 2.671-1.562 1.187-1.557 1.278.072 1.307.962.018 1.75.509 1.75 1.091s-.52.738-1.156.345c-1.432-.885-.299 10.541 1.193 12.033.529.529.963 2.033.963 3.34 0 3.345 5.158 8.223 8.695 8.223 6.487 0 14.786-12.071 15.666-22.784.351-4.285 2.304-5.4 3.2-1.828.349 1.391 1.34 3.111 2.201 3.821 1.395 1.151 1.427 1.031.291-1.099-.896-1.682-1.053-4.202-.53-8.5.408-3.361.796-7.305.86-8.765.064-1.459.397-2.481.739-2.27.599.371 2.977-9.787 2.424-10.355-.699-.718-4.396 9.724-4.702 13.28-.189 2.2-.794 4.338-1.344 4.75-.655.491-.616 1.009.114 1.5.632.426.808 1.604.407 2.728-1.898 5.312-3.14-4.684-1.588-12.778.298-1.551.134-2.55-.367-2.241-.498.308-1.411-.974-2.029-2.847-1.348-4.083-4.613-8.106-5.464-6.731-.333.54-.102 1.292.513 1.672 1.465.905 4.353 7.566 4.031 9.297-.138.743.16 1.097.662.786 1.259-.777.542 10.443-.75 11.735-1.457 1.457-1.286 3.877.221 3.114.688-.348.417.045-.6.874-1.018.83-1.571 1.96-1.229 2.513.342.553-.176 1.504-1.15 2.114-1.532.96-1.461 1.025.527.479 2.297-.63 2.298-.629.699 3.197-.88 2.105-2.697 5.791-4.039 8.192-1.342 2.401-2.186 4.778-1.875 5.281.311.503.195.814-.259.692-1.594-.432-5.346 1.328-4.781 2.242.348.564-.382.563-1.873-.004-2.483-.945-7.761-5.641-7.091-6.311.202-.201-.082-1.993-.631-3.981-4.222-15.291 2.408-38.297 12.161-42.2 4.665-1.867 4.752-2.082.959-2.371-1.859-.142-3.904.613-5.59 2.063m27.189 1.402c-1.141 1.141-.734 2.333.798 2.333 1.938 0 3.535 3.133 3.535 6.934 0 1.686.49 3.066 1.088 3.066 1.437 0 .21-7.726-1.707-10.75-1.461-2.303-2.536-2.762-3.714-1.583M192.158 165c0 1.375.227 1.938.504 1.25.278-.687.278-1.812 0-2.5-.277-.687-.504-.125-.504 1.25m-9 4c0 1.375.227 1.938.504 1.25.278-.687.278-1.812 0-2.5-.277-.687-.504-.125-.504 1.25m-4.035 13.462c-2.706 8.043-5.132 12.646-12.206 23.16-13.784 20.486-17.283 29.862-17.307 46.378-.008 5.775.413 11.252.937 12.171.642 1.126.97-2.628 1.005-11.5.056-13.945 3.021-25.473 8.459-32.881 1.094-1.49 1.989-2.994 1.989-3.341 0-.348.919-1.829 2.043-3.291 9.354-12.17 20.02-34.693 18.751-39.597-.162-.625-1.814 3.38-3.671 8.901m156.484-6.88c-.793 2.065-.766 2.418.18 2.418.433 0 .855-.9.938-2 .181-2.404-.289-2.58-1.118-.418M192 176c0 .55.477 1 1.059 1s.781-.45.441-1-.816-1-1.059-1-.441.45-.441 1m57 1.882c0 1.1-.43 2.266-.956 2.591-.526.325-.704 1.249-.396 2.053.655 1.707 2.66.853 2.04-.868-.23-.637-.027-1.918.45-2.847.523-1.019.469-1.936-.135-2.309-.552-.341-1.003.28-1.003 1.38m86.457 2.049c.317.512.106 1.221-.467 1.575-.573.355-.939 2.184-.812 4.065.292 4.336 1.376 3.196 2.206-2.321.414-2.752.262-4.25-.431-4.25-.589 0-.812.419-.496.931m-199.893 6.776c-.542 1.425-.428 1.54.56.56.684-.679.991-1.486.683-1.793-.308-.308-.867.247-1.243 1.233m110 3c-.542 1.425-.428 1.54.56.56.684-.679.991-1.486.683-1.793-.308-.308-.867.247-1.243 1.233M204 189.378c0 .207.787.995 1.75 1.75 1.586 1.243 1.621 1.208.378-.378-1.307-1.666-2.128-2.195-2.128-1.372m5.733 4.746c.679.684 1.486.991 1.793.683.308-.308-.247-.867-1.233-1.243-1.425-.542-1.54-.428-.56.56m122.267.293c0 .779-.562 1.643-1.25 1.921-.747.301-.545.536.5.583 1.11.05 1.75-.653 1.75-1.921 0-1.1-.225-2-.5-2s-.5.637-.5 1.417m-202.128 1.333c-1.243 1.586-1.208 1.621.378.378 1.666-1.307 2.195-2.128 1.372-2.128-.207 0-.995.787-1.75 1.75M239 197.15c-1.925 1.688-2.595 2.612-1.489 2.052 1.827-.923 6.356-5.258 5.394-5.161-.223.022-1.98 1.421-3.905 3.109m-36.557.757c.376.609 2.118 1.801 3.87 2.649 2.958 1.43 3.043 1.424 1.187-.081-3.037-2.463-5.886-3.909-5.057-2.568M233 201c-.901.582-1.025.975-.309.985.655.008 1.469-.435 1.809-.985.767-1.242.421-1.242-1.5 0m23.564 2.293c.376.986.935 1.541 1.243 1.233.308-.307.001-1.114-.683-1.793-.988-.98-1.102-.865-.56.56m-30.751.39c.721.289 1.584.253 1.916-.079.332-.332-.258-.568-1.312-.525-1.165.048-1.402.285-.604.604m105.059 3.067c-1.243 1.586-1.208 1.621.378.378.962-.755 1.75-1.543 1.75-1.75 0-.823-.821-.294-2.128 1.372M259 209.211c0 .849.749 2.162 1.664 2.917 1.522 1.255 1.553 1.159.364-1.128-1.742-3.352-2.028-3.605-2.028-1.789m-29 2.83c0 .572 1.316 3.61 2.925 6.75 8.554 16.696 10.07 31.277 4.414 42.459-.764 1.512-1.161 2.75-.882 2.75.28 0 1.701-2.351 3.157-5.226 5.191-10.243 3.143-26.442-5.237-41.428-3.511-6.278-4.377-7.328-4.377-5.305M191.158 214c0 1.375.227 1.938.504 1.25.278-.687.278-1.812 0-2.5-.277-.687-.504-.125-.504 1.25m-12.545 4.236c-5.925 18.344-5.538 37.895.932 47.132 1.856 2.649 1.864 1.765.018-1.964-4.157-8.401-4.121-28.147.082-44.296 1.831-7.034 1.145-7.613-1.032-.872m83.183-2.982c.572.689 2.197 3.277 3.61 5.75 1.414 2.473 2.575 3.799 2.582 2.946.015-1.915-5.1-9.95-6.334-9.95-.494 0-.431.564.142 1.254m-149.518 1.996c-1.499 1.938-2.442 3.75-1.952 3.75.244 0 1.181-1.125 2.082-2.5 1.686-2.573 1.592-3.476-.13-1.25M190 224.411c0 12.337 4.802 23.611 14.52 34.089 5.962 6.428 11.067 12.773 12.874 16 1.473 2.633 1.599 2.694 1.021.5-.833-3.17-6.03-10.487-13.834-19.478-8.886-10.238-12.814-19.368-12.964-30.133-.064-4.605-.455-8.376-.867-8.381-.412-.004-.75 3.327-.75 7.403m-63.783-3.692c-3.846 1.407-10.644 21.908-8.523 25.699.852 1.522 1.117 1.164 1.663-2.246.724-4.534 2.057-5.903 4.098-4.21 2.008 1.667 2.715-.071 2.963-7.282.116-3.399.787-7.241 1.49-8.537 1.342-2.478.483-4.219-1.691-3.424m-17.653 2.988c-.542 1.425-.428 1.54.56.56.684-.679.991-1.486.683-1.793-.308-.308-.867.247-1.243 1.233m3.781 2.836c-.326.849-.369 1.767-.096 2.04.274.273.737-.422 1.03-1.543.624-2.383-.069-2.751-.934-.497m157.07 2.707c.761 1.787 1.863 4.375 2.45 5.75l1.067 2.5-.391-2.5c-.618-3.947-2.651-9-3.623-9-.487 0-.263 1.463.497 3.25m-162.336-.667c.048 1.165.285 1.402.604.605.289-.722.253-1.585-.079-1.917-.332-.332-.568.258-.525 1.312m25.489 3.307c-.348.562-1.286.772-2.086.465-1.708-.656-3.536 3.383-3.377 7.46.095 2.424.216 2.329 1.25-.983 1.886-6.04 2.885-5.725 2.116.668-.897 7.458-.154 6.951 1.996-1.361 1.533-5.926 1.577-8.636.101-6.249m31.407 1.675c-1.278 3.363-1.26 16.141.025 16.935.55.34 1 .141 1-.441s.675-1.059 1.5-1.059c1.163 0 1.5-1.319 1.5-5.875 0-10.758-1.875-15.213-4.025-9.56m-27.565 3.185c-.59.963-1.088 4.675-1.107 8.25-.022 4.275.111 5.045.389 2.25.406-4.081 2.292-6.109 2.323-2.5.013 1.496.157 1.532.985.25.533-.825.962-2.625.953-4-.016-2.456-.044-2.465-1.597-.5-1.496 1.894-1.545 1.801-.922-1.75.733-4.185.542-4.558-1.024-2m94.307-1c-.221.412-.068 1.875.341 3.25.694 2.337.749 2.288.842-.75.096-3.135-.345-4.067-1.183-2.5m-61.05 1.917c-1.063 1.062-.771 13.151.333 13.833.633.391 1-2.156 1-6.941 0-7.589-.103-8.123-1.333-6.892m57.876.264c-.317.512-.118 1.213.441 1.559.559.345 1.016-.074 1.016-.931 0-1.757-.6-2.015-1.457-.628M219 240.153c0 2.205 2.165 5.847 3.475 5.847 1.075 0 1.525-1.029 1.525-3.489 0-3.11-.272-3.466-2.5-3.282-1.375.114-2.5.53-2.5.924m111.509 5.524c.935 2.236 1.16 3.91.574 4.272-.567.35-.723 3.766-.381 8.294.353 4.672.97 7.46 1.568 7.09.584-.361.74-3.099.383-6.721-.48-4.853-.369-5.708.538-4.153 3.271 5.611.384 21.438-5.095 27.933-1.511 1.79-1.485 1.823.471.623 2.747-1.684 6.256-6.911 7.46-11.11 1.981-6.907.497-21.65-2.665-26.475-.753-1.149-1.067-2.391-.699-2.76.369-.368-.311-.67-1.51-.67-2.123 0-2.14.096-.644 3.677m-81.743 3.498c-.372 3.672-1.382 8.363-2.243 10.425-1.546 3.699-1.541 3.726.385 1.983 1.999-1.808 3.693-11.503 2.908-16.636-.205-1.346-.678.557-1.05 4.228m-63.223-.244c-.317.512-.118 1.213.441 1.559.559.345 1.016-.074 1.016-.931 0-1.757-.6-2.015-1.457-.628M104.275 251c-.083 1.1.271 2 .787 2s.938-.9.938-2-.354-2-.787-2c-.433 0-.855.9-.938 2m147.335 2.5c-.396 2.2-1.145 4.781-1.665 5.736-1.365 2.508-1.163 3.19.529 1.786 1.647-1.367 2.939-6.839 2.283-9.672-.262-1.13-.708-.294-1.147 2.15m75.755 3.287c-.611.978-1.414 3.339-1.785 5.246-.633 3.255-.58 3.349.873 1.526 1.513-1.898 1.547-1.891 1.547.309 0 1.245.447 1.974 1 1.632 1.122-.694 1.226-6.075.168-8.746-.655-1.655-.75-1.653-1.803.033M115 273.18c0 .809 1.125 2.528 2.5 3.82 1.375 1.292 2.5 1.843 2.5 1.226 0-.618-1.125-2.337-2.5-3.821-1.646-1.775-2.5-2.194-2.5-1.225m153.07 5.955c-.045 1.681-1.007 3.249-2.657 4.33-1.422.932-2.315 1.966-1.983 2.298.332.332 1.101.106 1.709-.502.607-.607 1.837-.843 2.733-.524.895.32 1.306.226.913-.209s-.337-1.519.125-2.409c.461-.891.477-2.519.035-3.619-.714-1.776-.812-1.705-.875.635m-48.991.448c.048 1.165.285 1.402.604.605.289-.722.253-1.585-.079-1.917-.332-.332-.568.258-.525 1.312m90 0c.048 1.165.285 1.402.604.605.289-.722.253-1.585-.079-1.917-.332-.332-.568.258-.525 1.312M220.158 284c0 1.375.227 1.938.504 1.25.278-.687.278-1.812 0-2.5-.277-.687-.504-.125-.504 1.25m90.404 0c1.107 4.004 3.145 7.547 10.871 18.901 9.643 14.172 11.842 20.108 11.403 30.779-.363 8.831.954 8.751 1.869-.112 1.015-9.829-3.525-21.168-13.29-33.198-1.844-2.272-5.196-7.447-7.448-11.5-2.253-4.054-3.785-6.245-3.405-4.87m-43.135 6.75c.601 4.366 6.775 12.382 8.335 10.821.236-.236-1.008-1.713-2.765-3.282-2.483-2.219-3.312-3.904-3.725-7.571-.293-2.595-.975-4.718-1.516-4.718-.598 0-.727 1.86-.329 4.75M178 290.401c0 .221 1.575 1.331 3.5 2.466 4.017 2.371 4.451 2.097 1.311-.828-1.919-1.789-4.811-2.773-4.811-1.638m83 .492c0 .491.739 1.176 1.641 1.523 1.373.527 1.435.38.378-.893-1.44-1.735-2.019-1.916-2.019-.63m-1.921 3.69c.048 1.165.285 1.402.604.605.289-.722.253-1.585-.079-1.917-.332-.332-.568.258-.525 1.312m33.38.484c-.363.586-.445 1.281-.183 1.543s.743-.218 1.069-1.067c.676-1.762.1-2.072-.886-.476m-128.765 8.572c-.799.799.104 2.361 1.365 2.361.518 0 .941-.675.941-1.5 0-1.546-1.18-1.987-2.306-.861m11.046 3.06c-1.623 3.58-1.479 6.115.193 3.409.684-1.107.911-1.102 1.331.029.385 1.037.889.884 2.102-.637 1.72-2.156 3.628-.824 3.583 2.5-.012.91-.618.517-1.541-1l-1.522-2.5.576 2.75c.317 1.512.214 2.75-.229 2.75-.442 0-.804.9-.804 2 0 2.133 1.55 2.859 1.601.75.017-.694.484-.471 1.05.5 1.415 2.429 4.491 2.257 4.491-.25 0-2.454-2.543-2.695-2.641-.25-.061 1.512-.175 1.484-.835-.204-.444-1.136-.235-2.976.5-4.392.972-1.874.992-2.725.085-3.684-.649-.686-1.963-2.197-2.92-3.358-2.391-2.902-3.085-2.683-5.02 1.587m-6.74-.64c0 .582.45.781 1 .441s1-.816 1-1.059-.45-.441-1-.441-1 .477-1 1.059m8 .441c0 .825.45 1.5 1 1.5s1-.675 1-1.5-.45-1.5-1-1.5-1 .675-1 1.5m11 1.5c0 .55.702 1 1.559 1s1.281-.45.941-1c-.34-.55-1.041-1-1.559-1s-.941.45-.941 1m77.087 1.25c1.707 3.319 6.091 7.758 7.066 7.155.466-.287.862.291.881 1.286.052 2.744 9.668 13.007 10.969 11.706 2.09-2.09-2.038-7.389-11.484-14.745-2.011-1.566-3.416-3.088-3.122-3.382.542-.542-3.684-4.27-4.84-4.27-.345 0-.107 1.012.53 2.25m-79.008 3.333c.048 1.165.285 1.402.604.605.289-.722.253-1.585-.079-1.917-.332-.332-.568.258-.525 1.312m-26.961 1.167c.307 1.943-.208 3.313-1.049 2.793-.512-.317-1.213-.118-1.559.441-.348.562.291 1.016 1.431 1.016 1.132 0 2.059-.413 2.059-.918 0-.505.273-1.63.607-2.5.334-.87.109-1.582-.5-1.582s-1.054.337-.989.75m29.49.828c-.333.869-.16 1.263.403.915.544-.336.989.342.989 1.507 0 1.165-.45 1.84-1 1.5-.55-.34-1 .132-1 1.048 0 1.054.539 1.459 1.468 1.103.807-.31 1.722-.153 2.032.349.31.502 1.225.659 2.032.349.817-.313 1.468.002 1.468.711 0 .7.286.988.635.639 1.04-1.041-1.553-6.069-4.086-7.923-2.069-1.514-2.426-1.538-2.941-.198m-12.025.288c-.431.697-.513 1.537-.183 1.867.895.895 1.871-.421 1.387-1.871-.338-1.016-.574-1.016-1.204.004m-14.568 1.22c-.011 1.197 1.027 1.593 4.235 1.615 2.418.017 3.172-.172 1.75-.437-1.375-.256-2.831-.983-3.235-1.615-.499-.78-.744-.668-.765.351-.027 1.333-.138 1.333-1 0-.849-1.314-.971-1.303-.985.086m6.985-.703c0 .211 1.125.599 2.5.862s2.5.09 2.5-.384c0-.473-1.125-.861-2.5-.861s-2.5.173-2.5.383m167.009.808c.005.17 1.103 3.459 2.441 7.309 1.957 5.63 2.444 6.388 2.491 3.872.064-3.373-2.275-9.842-3.926-10.863-.558-.345-1.011-.488-1.006-.318m5.661 1.575c.314 1.246.967 2.51 1.451 2.809 1.368.845 1.035-.984-.571-3.134-1.399-1.873-1.43-1.861-.88.325M190 319c0 .55.477 1 1.059 1s.781-.45.441-1-.816-1-1.059-1-.441.45-.441 1m56-.491c0 .285 2.971 4.03 6.603 8.322 9.163 10.829 14.526 27.856 10.831 34.384-.578 1.022-.441 1.018.669-.016 2.822-2.628 1.752-15.02-1.944-22.528-2.607-5.295-16.159-22.204-16.159-20.162M343.158 324c0 1.375.227 1.938.504 1.25.278-.687.278-1.812 0-2.5-.277-.687-.504-.125-.504 1.25m-172.935 4.72c-3.074 7.166-5.38 17.025-4.945 21.133l.386 3.647.168-4.02c.198-4.735 3.586-17.454 5.779-21.695.845-1.634 1.34-3.168 1.099-3.408-.241-.241-1.36 1.713-2.487 4.343m119.343-3.827c-.376.609-.29 1.107.191 1.107s1.96 1.913 3.286 4.25l2.412 4.25.919-4.27c.89-4.138.24-6.715-1.178-4.668-.977 1.41-3.112 1.192-4.107-.419-.585-.945-1.046-1.021-1.523-.25m-88.928 4.607c.317.825 1.033 1.5 1.591 1.5.586 0 .489-.635-.229-1.5-.685-.825-1.401-1.5-1.591-1.5-.19 0-.087.675.229 1.5M262 328.32c0 .241 1.562 3.031 3.471 6.202 1.909 3.17 3.232 6.149 2.941 6.621-.292.471-.005.857.637.857 1.637 0 .42-4.298-2.548-8.999-2.163-3.426-4.501-5.858-4.501-4.681m25.848.473c.741.52 1.416 2.072 1.5 3.449.104 1.712.599 2.332 1.566 1.96.807-.309 1.143-.103.782.481-.348.562.014 1.876.804 2.92 1.104 1.458 1.44 1.55 1.452.397.023-2.285-4.255-9.291-5.952-9.748-1.206-.325-1.236-.219-.152.541M271 330.107c0 .609-.675.848-1.5.531-.825-.316-1.5-.107-1.5.465 0 1.812 5.155 9.919 5.982 9.408.435-.269 1.347.181 2.027 1 3.717 4.478 3.573-3.165-.175-9.261-1.926-3.134-4.834-4.423-4.834-2.143m12.391.315c-.3.782 1.296 4.945 3.545 9.25 4.012 7.677 4.081 7.745 3.584 3.558-.465-3.917-4.863-14.23-6.068-14.23-.283 0-.76.64-1.061 1.422m-30.425 6.085c1.394 2.965 2.677 4.985 2.852 4.488.407-1.157-2.628-7.593-4.194-8.892-.655-.544-.051 1.438 1.342 4.404M243 333.025c0 .898-4.166 3.158-6.25 3.391-1.197.134-1.207.945-.036 3.037.936 1.673 1.325 1.76 2.719.603 1.395-1.158 1.976-1.02 4.096.972 1.389 1.304 2.471 1.777 2.471 1.079 0-.796.735-1.009 2.048-.592 1.997.634 2.009.557.479-3.106-2.281-5.457-5.527-8.62-5.527-5.384M263.71 337c.288 1.1.937 2 1.442 2 .507 0 .439-.895-.152-2-.589-1.1-1.237-2-1.442-2-.204 0-.135.9.152 2m-57.71-.429c0 1.063 3.091 3.672 3.667 3.096.314-.315-.125-1.268-.977-2.119-1.587-1.588-2.69-1.988-2.69-.977m23.543 1.36c-.317.512-.118 1.213.441 1.559.559.345 1.016-.074 1.016-.931 0-1.757-.6-2.015-1.457-.628m2.457 4.01c0 .518.445 1.216.989 1.552.566.35.734-.051.393-.941-.665-1.732-1.382-2.049-1.382-.611m-19 1.452c0 .216.698.661 1.552.989.89.341 1.291.173.941-.393-.587-.951-2.493-1.406-2.493-.596M164.158 357c0 1.375.227 1.938.504 1.25.278-.687.278-1.812 0-2.5-.277-.687-.504-.125-.504 1.25m.142 8c0 3.025.187 4.262.416 2.75.229-1.512.229-3.988 0-5.5s-.416-.275-.416 2.75m70.786-1c-.031.825.381 2.175.914 3 1.181 1.828 1.181.249 0-2.5-.567-1.319-.878-1.489-.914-.5m79.993 1.583c.048 1.165.285 1.402.604.605.289-.722.253-1.585-.079-1.917-.332-.332-.568.258-.525 1.312M224.5 366c.34.55.816 1 1.059 1s.441-.45.441-1-.477-1-1.059-1-.781.45-.441 1m113.868 4.192c.319 4.012 2.259 7.808 3.991 7.808.683 0-.759-4.741-2.738-9l-1.626-3.5.373 4.692m-117.333-1.564c.02.479.679 1.997 1.465 3.372 1.346 2.355 1.431 2.377 1.465.372.019-1.17-.64-2.687-1.465-3.372-.825-.685-1.484-.852-1.465-.372m-65.625 21.337c-6.521 3.272-13.41 8.561-13.41 10.295 0 .613 1.238-.029 2.75-1.426 7.018-6.482 14.601-10.207 22.75-11.177 1.992-.237 1.457-.408-1.59-.507-3.31-.108-6.239.677-10.5 2.815m28.858 3.407c5.923 2.923 11.773 6.217 13 7.321 1.228 1.104 4.482 3.518 7.232 5.366 2.75 1.847 5.9 4.218 7 5.27 1.1 1.051 3.35 2.756 5 3.788 1.65 1.031 2.628 1.877 2.173 1.879-.688.003 2.754 3.162 6.827 6.264.55.419 2.575 2.124 4.5 3.789 3.554 3.075 7 5.349 7 4.621 0-.221-3.262-3.1-7.25-6.399s-8.823-7.468-10.745-9.265c-10.976-10.258-27.018-20.822-40.156-26.444-7.812-3.343-4.834-1.249 5.419 3.81m-46.518 11.087c-1.512 1.824-2.749 3.704-2.748 4.178.002.475 1.351-.712 2.998-2.637 1.647-1.925 2.996-3.837 2.998-4.25.003-1.116-.249-.905-3.248 2.709m-5.589 8.088c-.639 1.401-1.206 3.313-1.261 4.25-.065 1.119-.403.846-.986-.797-.589-1.663-.723.147-.4 5.401.267 4.345.486 8.958.486 10.25 0 1.292.415 2.349.923 2.349.53 0 .687-3.112.37-7.312-.457-6.037-.192-8.129 1.521-12 1.14-2.578 1.721-4.688 1.29-4.688-.431 0-1.305 1.146-1.943 2.547M185 429.304c0 5.604 13.884 13.814 24.276 14.355 3.441.179 5.582-.08 5.239-.634-.318-.516-1.24-.684-2.047-.374-.964.369-1.473-.075-1.483-1.294-.009-1.101-.315-1.42-.75-.784-1.085 1.584-4.235 2.543-4.235 1.289 0-.592-.675-.817-1.5-.5-1.292.495-2.024-.533-1.25-1.757.492-.777-3.586-4.605-4.905-4.605-.74 0-1.345-.675-1.345-1.5 0-1.764 1.158-1.942 2.687-.413.654.654 1.319.713 1.668.147.855-1.383-9.353-6.234-13.119-6.234-2.712 0-3.236.373-3.236 2.304m1.869.038c.612.738.896 1.642.631 2.008-.266.367.014.252.621-.255 1.227-1.023.355-3.095-1.302-3.095-.727 0-.711.426.05 1.342m3.745 2.024c-.526 2.012 1.776 5.634 3.581 5.634.488 0 2.212.981 3.833 2.179s3.173 1.953 3.449 1.677c.822-.822-3.515-4.951-4.537-4.319-.517.319-.94.078-.94-.537s-.45-.84-1-.5c-1.522.941-1.193-.45.509-2.152 1.861-1.861 1.268-2.966-1.918-3.575-1.842-.352-2.57.037-2.977 1.593m.845.701c-.363.586-.419 1.306-.126 1.6.717.716 2.667-.546 2.667-1.726 0-1.278-1.726-1.193-2.541.126M203.5 436c.34.55.816 1 1.059 1s.441-.45.441-1-.477-1-1.059-1-.781.45-.441 1m3.5 3c0 1.1.408 2 .906 2 .499 0 .671-.9.384-2-.288-1.1-.696-2-.907-2-.21 0-.383.9-.383 2" fill-rule="evenodd"/>
</svg>